<?xml version="1.0" standalone="no"?>
<!DOCTYPE svg PUBLIC "-//W3C//DTD SVG 20010904//EN"
 "http://www.w3.org/TR/2001/REC-SVG-20010904/DTD/svg10.dtd">
<svg version="1.0" xmlns="http://www.w3.org/2000/svg"
 width="1600.000000pt" height="1398.000000pt" viewBox="0 0 1600.000000 1398.000000"
 preserveAspectRatio="xMidYMid meet">

<g transform="translate(0.000000,1398.000000) scale(0.100000,-0.100000)"
fill="#000000" stroke="none">
<path d="M8753 13784 c-3 -9 0 -20 8 -25 23 -14 29 -11 29 16 0 28 -27 35 -37
9z"/>
<path d="M8820 13770 c0 -13 7 -20 20 -20 13 0 20 7 20 20 0 13 -7 20 -20 20
-13 0 -20 -7 -20 -20z"/>
<path d="M7695 13558 c4 -117 11 -217 15 -222 21 -22 30 10 30 105 l0 99 40 0
c31 0 40 4 40 18 0 14 -7 17 -45 14 l-45 -4 0 80 0 81 45 7 c28 4 45 11 45 20
0 11 -16 14 -66 14 l-66 0 7 -212z"/>
<path d="M7882 13558 l3 -213 80 0 80 0 0 210 0 210 -83 3 -82 3 2 -213z m128
-3 l0 -185 -43 0 -44 0 -6 177 c-3 97 -4 180 -1 185 3 4 25 8 50 8 l44 0 0
-185z"/>
<path d="M8120 13677 c0 -52 -3 -149 -7 -215 l-6 -122 66 0 c52 0 67 3 67 14
0 10 -16 17 -46 22 l-46 7 7 193 c7 193 7 194 -14 194 -20 0 -21 -5 -21 -93z"/>
<path d="M8307 13698 c-16 -190 -20 -355 -8 -363 21 -12 26 3 31 98 l5 92 21
-45 c11 -25 29 -69 39 -97 13 -37 24 -53 37 -53 10 0 18 3 18 7 0 5 -19 56
-41 115 l-41 107 51 95 c28 52 51 97 51 100 0 3 -9 6 -20 6 -15 0 -31 -22 -65
-87 l-45 -88 2 90 c3 76 1 90 -13 93 -13 2 -17 -10 -22 -70z"/>
<path d="M7465 13698 c3 -29 12 -124 20 -211 7 -88 16 -161 19 -164 3 -3 11
-3 18 0 11 4 10 39 -4 198 -9 107 -17 202 -17 212 -1 10 -9 17 -21 17 -18 0
-20 -5 -15 -52z"/>
<path d="M8526 13738 c-3 -7 -9 -83 -16 -168 -6 -85 -14 -176 -17 -202 l-5
-46 66 -4 c56 -2 66 0 66 13 0 12 -12 18 -41 22 -22 3 -42 7 -44 9 -2 2 2 80
10 173 18 213 18 215 0 215 -9 0 -17 -6 -19 -12z"/>
<path d="M7268 13733 c-33 -5 -37 -15 -28 -86 6 -55 9 -61 77 -130 67 -68 72
-75 75 -122 l3 -50 -41 -3 -41 -3 -7 50 c-5 40 -11 51 -25 51 -16 0 -17 -7
-13 -52 8 -85 13 -91 85 -83 34 4 67 13 73 20 7 9 8 36 3 75 -7 58 -10 64 -77
134 -60 64 -70 80 -74 117 -3 24 -4 45 -4 45 1 1 20 4 44 7 40 5 42 4 42 -21
0 -46 11 -73 29 -70 12 2 15 13 13 48 -5 77 -8 80 -60 79 -26 -1 -59 -4 -74
-6z"/>
<path d="M8725 13726 c-21 -16 -64 -391 -47 -408 17 -17 134 -28 149 -14 11
10 53 317 53 385 0 28 -3 30 -47 36 -27 3 -58 7 -70 9 -13 2 -30 -2 -38 -8z
m114 -41 c6 -7 -32 -333 -40 -346 -4 -7 -22 -9 -48 -4 -49 8 -47 1 -26 177 26
208 20 191 68 184 23 -4 43 -9 46 -11z"/>
<path d="M7087 13710 c-20 -4 -40 -10 -44 -13 -3 -4 6 -99 22 -212 l28 -205
26 0 c60 0 101 13 101 30 0 14 -7 16 -48 12 l-49 -4 -6 62 c-11 101 -12 99 33
106 29 5 40 11 38 22 -2 11 -16 16 -48 16 l-45 1 -8 64 c-4 36 -6 70 -3 77 3
7 22 14 43 16 27 2 39 8 41 21 4 19 -14 20 -81 7z"/>
<path d="M8936 13543 c-41 -264 -41 -263 -23 -263 9 0 19 10 22 23 5 23 55
337 55 350 0 10 62 9 79 -2 11 -7 11 -21 1 -81 l-12 -72 -35 5 -35 6 6 -37 c3
-20 12 -76 18 -124 10 -73 15 -88 30 -88 22 0 22 13 3 113 -19 99 -19 95 10
89 30 -5 37 10 54 121 15 95 11 102 -66 112 -31 4 -62 9 -68 11 -9 4 -20 -44
-39 -163z"/>
<path d="M6888 13678 c-47 -8 -58 -14 -58 -30 0 -16 6 -19 32 -16 l32 3 27
-160 c16 -88 31 -175 34 -192 7 -39 35 -46 35 -9 0 13 -13 102 -30 198 -16 95
-30 174 -30 175 0 1 12 3 27 5 17 2 29 10 31 21 4 19 -10 20 -100 5z"/>
<path d="M6740 13643 c0 -5 19 -101 41 -214 38 -190 43 -206 61 -201 10 2 17
10 15 16 -2 6 -21 100 -42 209 -33 172 -40 197 -56 197 -11 0 -19 -3 -19 -7z"/>
<path d="M9356 13632 c-10 -16 -148 -378 -149 -392 -1 -8 5 -16 14 -18 12 -2
20 10 29 43 13 45 15 47 43 41 16 -3 33 -6 38 -6 5 0 9 -22 9 -49 0 -36 4 -51
16 -55 9 -4 18 -5 19 -4 2 2 6 100 10 219 6 192 5 217 -9 222 -8 3 -17 3 -20
-1z m-3 -194 l-6 -107 -31 6 c-17 3 -32 7 -34 8 -1 1 14 48 35 103 20 56 38
100 40 99 1 -2 -1 -51 -4 -109z"/>
<path d="M6590 13597 c-36 -12 -67 -22 -69 -24 -2 -1 2 -25 9 -53 11 -46 20
-58 90 -116 62 -52 79 -73 85 -100 3 -20 9 -42 11 -49 4 -9 -8 -16 -38 -22
l-43 -9 -11 45 c-6 30 -16 47 -27 49 -20 4 -22 -19 -6 -84 10 -40 14 -44 41
-44 16 0 50 5 75 12 l46 11 -7 60 c-8 75 -19 92 -105 162 -59 48 -70 62 -76
96 -4 22 -5 42 -3 44 1 2 20 6 40 10 l37 7 12 -46 c13 -54 40 -64 38 -13 -1
43 -12 80 -24 83 -6 1 -39 -7 -75 -19z"/>
<path d="M9511 13563 c-6 -21 -29 -114 -51 -207 -32 -133 -38 -171 -28 -177 7
-5 16 -5 19 -1 3 4 23 75 43 157 20 83 41 166 47 186 l9 37 41 -11 c40 -10 41
-11 35 -46 -3 -20 -11 -53 -17 -75 -10 -37 -12 -38 -45 -33 l-34 6 6 -92 c8
-123 17 -162 34 -162 8 0 14 5 14 10 -1 6 -4 52 -8 103 l-7 92 30 0 c26 0 31
5 40 38 20 69 33 151 28 165 -3 7 -31 19 -63 26 -33 8 -64 16 -71 18 -7 3 -16
-11 -22 -34z"/>
<path d="M6420 13534 c0 -9 7 -43 15 -75 17 -65 14 -79 -15 -79 -10 0 -21 -4
-25 -10 -9 -15 118 -210 138 -210 9 0 17 4 17 9 0 4 -25 46 -55 92 l-54 84 24
13 c27 14 30 32 15 78 -5 16 -14 48 -20 72 -10 41 -40 60 -40 26z"/>
<path d="M9793 13503 c-6 -16 -47 -104 -91 -198 -58 -121 -78 -172 -69 -177
20 -13 24 -10 42 38 12 32 21 44 32 40 8 -4 26 -9 39 -12 23 -6 24 -9 18 -56
-6 -45 -5 -50 12 -46 16 3 21 27 42 212 19 170 21 211 10 217 -20 13 -23 11
-35 -18z m-5 -176 c-11 -88 -14 -97 -32 -97 -46 0 -48 13 -13 91 19 41 37 83
41 93 13 38 15 8 4 -87z"/>
<path d="M6302 13512 c-10 -7 -5 -36 22 -138 19 -71 40 -155 47 -186 10 -44
18 -58 31 -58 10 0 18 3 18 8 1 15 -95 382 -100 382 -3 0 -11 -4 -18 -8z"/>
<path d="M6137 13478 c-35 -9 -38 -13 -34 -37 6 -38 99 -355 106 -363 3 -3 34
3 68 13 48 15 61 23 56 35 -4 10 -13 14 -27 10 -74 -22 -71 -23 -90 46 -10 34
-19 70 -22 79 -3 11 7 19 36 28 25 7 40 18 40 28 0 15 -5 15 -83 0 -9 -2 -47
106 -47 134 0 9 14 19 38 26 20 6 28 11 17 11 -11 0 -37 -5 -58 -10z"/>
<path d="M9963 13468 c-6 -7 -18 -35 -27 -63 l-16 -50 35 -94 35 -95 -16 -49
c-12 -35 -20 -47 -31 -43 -8 4 -26 9 -39 12 -28 7 -28 9 -9 64 19 53 19 50 -4
50 -15 0 -24 -13 -37 -54 -9 -30 -15 -60 -12 -68 6 -15 124 -52 138 -43 5 3
18 34 29 69 l20 64 -35 93 c-33 88 -34 95 -21 133 8 23 17 40 20 39 4 -1 23
-5 41 -9 l34 -6 -14 -46 c-7 -26 -14 -48 -14 -48 0 -1 8 -4 19 -7 15 -4 21 5
34 52 19 66 16 71 -57 95 -59 19 -61 19 -73 4z"/>
<path d="M6003 13428 c13 -52 49 -280 45 -283 -2 -2 -35 59 -73 135 -50 102
-74 140 -87 140 -10 0 -18 -3 -18 -6 0 -4 43 -91 96 -195 73 -143 101 -189
115 -189 23 0 23 -10 0 135 -10 66 -25 157 -32 203 -11 70 -15 82 -32 82 -15
0 -18 -5 -14 -22z"/>
<path d="M10156 13404 c-4 -9 4 -19 22 -26 15 -7 28 -12 29 -13 1 -1 -27 -84
-63 -185 -50 -141 -62 -185 -52 -192 7 -4 15 -8 18 -8 3 0 34 83 69 185 l65
185 33 -6 c26 -5 33 -3 33 9 0 10 -25 24 -74 40 -62 21 -75 23 -80 11z"/>
<path d="M5780 13383 c0 -5 31 -96 69 -203 48 -137 73 -196 84 -198 10 -2 17
2 17 9 0 7 -30 99 -67 206 -53 151 -72 193 -85 193 -10 0 -18 -3 -18 -7z"/>
<path d="M5686 13351 c-6 -10 8 -53 56 -174 17 -43 28 -80 26 -83 -3 -2 -47
45 -97 106 -137 165 -141 153 -36 -120 37 -96 69 -177 71 -179 2 -3 9 0 16 7
8 8 0 43 -36 138 -25 70 -45 128 -43 131 3 2 111 -123 185 -215 50 -63 0 104
-113 381 -8 19 -21 22 -29 8z"/>
<path d="M10291 13148 c-39 -106 -71 -199 -71 -206 0 -8 7 -12 16 -10 11 2 40
65 89 198 40 107 71 198 68 203 -16 27 -37 -11 -102 -185z"/>
<path d="M5400 13290 c0 -15 5 -20 18 -18 9 2 17 10 17 18 0 8 -8 16 -17 18
-13 2 -18 -3 -18 -18z"/>
<path d="M10386 13104 c-62 -156 -76 -198 -65 -205 8 -4 17 -5 21 -1 5 6 90
212 139 340 8 22 10 22 46 7 20 -9 39 -17 41 -20 2 -2 -8 -35 -23 -74 -26 -66
-29 -69 -52 -60 -13 5 -28 9 -33 9 -4 0 -11 -35 -14 -77 -4 -43 -8 -99 -11
-124 -3 -39 -1 -48 14 -52 16 -4 19 4 25 62 3 36 6 84 6 106 0 40 1 41 33 37
32 -3 32 -3 65 82 19 47 32 93 30 102 -3 14 -105 64 -132 64 -6 0 -47 -88 -90
-196z"/>
<path d="M5342 13282 c-12 -8 -7 -42 7 -42 17 1 31 18 25 33 -7 19 -13 20 -32
9z"/>
<path d="M5455 13258 c-3 -8 28 -92 69 -188 l75 -175 -41 -18 c-22 -10 -44
-15 -48 -10 -4 4 -38 82 -75 173 -38 91 -72 169 -77 175 -5 5 -12 5 -20 -3 -8
-8 8 -57 67 -198 44 -102 85 -188 92 -191 17 -7 131 39 137 54 3 7 -20 72 -51
145 -30 73 -66 158 -78 188 -23 56 -41 72 -50 48z"/>
<path d="M10602 13020 c-76 -171 -88 -210 -63 -210 5 0 33 54 62 120 29 66 54
118 55 117 2 -2 -6 -52 -16 -112 -11 -59 -18 -110 -16 -113 3 -2 35 35 72 82
37 47 69 85 71 83 1 -2 -20 -55 -48 -117 -39 -88 -47 -115 -37 -121 7 -5 16
-5 19 -1 9 9 169 372 169 382 0 4 -6 10 -13 13 -8 3 -46 -38 -97 -104 -46 -60
-85 -107 -87 -105 -2 1 8 63 22 136 14 73 25 134 25 136 0 2 -8 4 -17 4 -14 0
-39 -48 -101 -190z"/>
<path d="M5070 13090 c-10 -6 5 -48 74 -197 48 -103 89 -190 91 -192 2 -2 29
7 59 20 39 16 56 28 56 41 0 22 -2 22 -51 -1 l-40 -20 -80 166 c-43 91 -79
169 -79 174 0 13 -15 18 -30 9z"/>
<path d="M10908 12964 c-46 -64 -90 -126 -98 -137 -8 -12 -27 -39 -43 -60 -23
-30 -27 -41 -18 -50 10 -9 20 -4 45 26 30 36 33 37 65 26 30 -11 32 -14 26
-43 -4 -17 -10 -42 -12 -54 -5 -19 -2 -23 12 -20 13 2 31 49 76 203 33 110 59
203 59 206 0 4 -7 9 -15 13 -10 4 -39 -29 -97 -110z m52 -1 c-58 -190 -57
-187 -95 -159 -19 13 -17 18 38 100 32 47 60 86 62 86 2 0 0 -12 -5 -27z"/>
<path d="M4930 13060 c-9 -6 -10 -10 -3 -10 6 0 15 5 18 10 8 12 4 12 -15 0z"/>
<path d="M4965 13041 c-3 -6 32 -86 79 -178 48 -91 86 -170 86 -174 0 -5 -18
-18 -39 -29 l-39 -20 -87 173 c-48 94 -89 174 -91 176 -2 2 -10 1 -19 -3 -12
-4 1 -38 74 -184 49 -98 96 -184 104 -191 13 -10 26 -7 75 18 33 16 62 36 65
44 6 16 -173 369 -190 374 -6 2 -14 -1 -18 -6z"/>
<path d="M11206 12945 c-3 -8 -2 -15 2 -15 4 0 15 -7 26 -15 17 -13 13 -23
-74 -186 -64 -121 -88 -175 -81 -182 16 -16 19 -10 116 168 48 88 89 162 91
165 3 2 14 -1 24 -8 36 -22 44 -12 14 19 -24 26 -92 69 -108 69 -2 0 -6 -7
-10 -15z"/>
<path d="M4685 12888 c-5 -11 172 -348 194 -371 4 -4 30 5 57 19 62 34 58 30
50 49 -5 14 -10 13 -47 -5 -22 -12 -42 -20 -44 -18 -2 2 -44 77 -93 168 -50
90 -95 166 -101 168 -6 2 -13 -2 -16 -10z"/>
<path d="M4604 12845 c-5 -12 21 -130 43 -194 3 -9 -28 17 -70 58 -58 56 -80
72 -94 67 -15 -6 -1 -24 83 -106 68 -65 113 -120 138 -164 33 -60 57 -79 69
-58 3 4 -14 40 -38 80 -32 55 -51 105 -75 202 -31 123 -43 149 -56 115z"/>
<path d="M11297 12679 c-54 -95 -96 -178 -93 -185 7 -20 97 -74 123 -74 17 0
38 29 106 148 122 212 114 189 80 224 -32 34 -74 58 -100 58 -13 0 -46 -49
-116 -171z m171 111 c17 -11 32 -22 32 -25 0 -15 -173 -305 -182 -305 -6 0
-26 9 -44 21 l-33 20 32 57 c18 31 57 101 87 154 30 54 60 98 65 98 6 0 25 -9
43 -20z"/>
<path d="M4375 12703 c-27 -18 -49 -38 -48 -43 2 -7 56 -95 185 -302 l30 -47
41 26 c61 37 66 43 60 59 -4 11 -14 9 -48 -12 l-44 -25 -42 71 c-45 75 -45 73
4 101 19 11 23 39 6 39 -6 0 -24 -9 -40 -21 l-29 -20 -35 55 c-51 80 -51 82
-11 108 20 13 36 26 36 30 0 18 -19 13 -65 -19z"/>
<path d="M11596 12702 c-146 -233 -198 -324 -187 -335 14 -13 15 -12 70 77
l35 56 42 -25 c23 -14 49 -25 57 -25 16 0 127 174 127 200 0 11 -22 31 -60 53
l-60 36 -24 -37z m77 -31 c15 -8 27 -19 27 -24 0 -13 -89 -157 -97 -157 -3 0
-21 9 -39 21 l-33 20 36 57 c19 31 42 67 50 80 8 13 17 22 21 20 4 -2 19 -10
35 -17z"/>
<path d="M11691 12447 c-61 -96 -111 -178 -111 -183 0 -11 82 -64 99 -64 23 0
10 29 -23 50 l-35 21 66 102 c36 56 83 129 105 161 38 58 42 76 21 83 -5 2
-60 -75 -122 -170z"/>
<path d="M4125 12539 c-62 -39 -58 -36 -51 -48 5 -7 22 -1 47 16 22 14 41 24
43 22 2 -2 27 -79 55 -170 27 -91 55 -178 61 -193 l10 -27 60 41 c33 22 60 47
60 55 0 20 -8 19 -55 -10 -22 -14 -43 -25 -46 -25 -3 0 -11 19 -18 43 -42 144
-103 327 -109 327 -4 0 -29 -14 -57 -31z"/>
<path d="M11926 12461 c-181 -259 -199 -290 -187 -305 22 -26 110 -78 124 -73
7 3 51 60 97 128 46 68 98 143 114 167 24 34 27 45 17 55 -10 10 -16 8 -29
-10 -14 -18 -183 -263 -204 -296 -4 -7 -21 -1 -48 16 l-41 28 67 97 c37 53 87
125 111 158 46 65 51 79 31 87 -7 2 -30 -20 -52 -52z"/>
<path d="M3993 12452 c-13 -8 -7 -17 125 -200 45 -63 82 -118 82 -122 0 -11
-54 -50 -69 -50 -5 0 -58 68 -117 150 -58 83 -109 152 -113 154 -4 3 -13 1
-20 -3 -9 -6 20 -54 106 -174 65 -92 123 -168 129 -171 18 -7 124 67 124 87 0
17 -218 336 -230 336 -3 1 -10 -3 -17 -7z"/>
<path d="M12112 12312 c-27 -37 -73 -101 -102 -142 -29 -41 -64 -89 -77 -106
l-24 -32 52 -37 c38 -27 54 -34 63 -25 8 8 3 18 -22 38 -18 15 -32 31 -32 36
0 4 50 77 110 162 61 84 110 155 110 158 0 2 -6 6 -14 9 -10 4 -31 -17 -64
-61z"/>
<path d="M3811 12326 c-11 -13 -10 -30 7 -104 11 -48 19 -88 17 -90 -2 -2 -24
24 -50 57 -42 55 -75 77 -75 51 0 -20 240 -330 255 -330 26 0 16 23 -40 95
-30 38 -53 71 -51 72 1 2 45 -20 96 -48 78 -42 95 -48 107 -37 11 12 1 20 -59
53 -147 78 -141 71 -162 171 -27 125 -29 130 -45 110z"/>
<path d="M12191 12110 c-67 -87 -121 -166 -121 -174 0 -16 96 -96 115 -96 7 0
39 35 71 77 199 261 196 256 179 266 -12 6 -20 4 -28 -7 -108 -145 -223 -295
-227 -296 -3 0 -21 13 -40 28 l-34 29 118 156 c105 139 125 177 96 177 -4 0
-63 -72 -129 -160z"/>
<path d="M12410 12247 c0 -3 57 -55 128 -115 134 -117 285 -257 266 -248 -7 3
-69 -61 -139 -144 -73 -85 -132 -147 -139 -143 -21 11 -56 46 -56 55 0 5 54
73 120 150 113 133 128 157 104 165 -9 3 -245 -266 -267 -304 -6 -11 6 -28 44
-64 29 -27 58 -49 66 -49 7 0 74 72 150 160 l137 160 31 -30 c35 -34 41 -36
49 -15 10 26 -113 132 -481 418 -7 5 -13 7 -13 4z"/>
<path d="M3578 12147 c-32 -23 -58 -49 -58 -57 0 -20 235 -314 255 -318 20 -5
115 75 115 97 0 16 -232 314 -248 318 -4 1 -33 -17 -64 -40z m166 -136 c58
-74 106 -137 106 -142 0 -11 -61 -60 -70 -57 -11 4 -220 266 -220 276 0 9 63
62 71 59 4 -1 54 -62 113 -136z"/>
<path d="M12373 11956 c-68 -85 -123 -158 -123 -164 0 -14 95 -92 112 -92 8 0
37 28 64 62 82 103 78 94 43 118 -34 25 -50 19 -31 -11 11 -17 7 -26 -30 -74
-24 -30 -45 -54 -48 -54 -3 -1 -20 11 -38 27 l-33 27 111 138 c61 75 113 137
116 137 13 0 64 -42 64 -53 0 -6 -12 -23 -27 -39 -21 -22 -24 -30 -14 -42 11
-13 18 -10 47 25 19 23 34 49 34 58 0 21 -82 91 -107 91 -11 0 -64 -58 -140
-154z"/>
<path d="M3363 11972 l-43 -37 134 -158 c73 -86 136 -160 139 -163 9 -9 79 53
96 84 19 35 8 54 -110 193 -95 112 -103 119 -138 119 -27 0 -46 -9 -78 -38z
m99 -4 c33 -26 198 -231 198 -246 0 -16 -38 -62 -51 -62 -4 0 -60 62 -124 137
l-116 138 26 22 c30 26 44 28 67 11z"/>
<path d="M2393 11715 c10 -218 31 -276 135 -358 94 -75 98 -82 81 -114 -8 -15
-42 -63 -76 -107 -34 -45 -93 -121 -130 -169 l-68 -89 -3 36 c-2 20 5 73 14
119 10 45 18 129 18 187 1 117 -12 156 -90 276 l-38 59 -27 -115 c-16 -63 -31
-159 -35 -212 -8 -118 4 -158 75 -247 85 -106 85 -103 -3 -224 -41 -58 -116
-167 -166 -242 -49 -75 -90 -133 -90 -128 0 20 30 104 53 149 13 27 39 94 57
149 49 149 48 240 -4 400 l-39 120 -73 -150 c-40 -82 -85 -192 -100 -243 -35
-126 -31 -180 24 -298 23 -49 46 -107 52 -130 10 -40 8 -44 -55 -150 -36 -60
-97 -169 -137 -241 -39 -73 -73 -132 -74 -130 -6 6 27 161 50 230 40 124 60
234 60 342 0 114 -23 196 -97 339 l-40 78 -49 -138 c-79 -223 -101 -315 -102
-429 -1 -90 2 -106 27 -159 15 -32 43 -81 62 -108 37 -51 75 -139 75 -174 0
-12 -23 -70 -52 -130 -28 -60 -75 -165 -105 -234 l-54 -125 5 75 c2 41 16 134
31 205 34 162 38 337 11 430 -22 74 -71 173 -132 267 l-47 73 -33 -130 c-82
-321 -94 -520 -40 -628 15 -30 54 -86 86 -126 32 -39 71 -97 86 -128 23 -50
25 -61 15 -88 -11 -27 -133 -392 -160 -475 -8 -27 -9 5 -3 135 20 486 1 554
-240 856 -19 24 -28 29 -31 19 -15 -48 -40 -298 -44 -435 -8 -261 15 -332 158
-480 47 -49 98 -109 113 -133 l27 -43 -25 -102 c-22 -88 -57 -260 -81 -392
l-8 -40 -13 50 c-8 28 -19 111 -24 185 -19 251 -66 431 -141 541 -42 63 -193
219 -250 259 l-32 23 7 -159 c17 -391 57 -568 152 -674 21 -23 81 -73 134
-110 52 -38 110 -87 128 -109 l33 -40 -20 -183 c-34 -314 -37 -362 -35 -655
l1 -285 -23 28 c-55 67 -125 177 -183 289 -148 283 -289 428 -501 518 -95 40
-271 99 -278 93 -7 -8 174 -370 234 -467 158 -257 244 -324 484 -373 123 -25
267 -82 275 -109 1 -7 8 -75 14 -152 10 -123 40 -359 56 -450 5 -27 -1 -23
-65 45 -39 41 -101 120 -137 175 -169 255 -335 431 -472 499 -114 57 -491 158
-491 132 0 -7 178 -293 229 -370 127 -187 272 -342 369 -394 74 -39 154 -58
302 -71 83 -7 138 -18 195 -38 l79 -29 32 -150 c17 -82 51 -222 74 -312 23
-90 40 -165 38 -167 -8 -8 -179 168 -238 245 -143 187 -363 379 -497 433 -108
44 -279 80 -439 93 -73 6 -86 5 -79 -7 20 -32 194 -261 270 -354 99 -120 251
-269 326 -318 98 -65 160 -79 374 -87 132 -6 207 -13 246 -25 l56 -17 42 -131
c38 -118 101 -292 160 -444 12 -29 18 -53 14 -53 -20 0 -171 129 -290 248
-158 158 -280 253 -408 318 -125 62 -232 84 -460 91 l-180 5 26 -28 c186 -209
324 -355 399 -419 243 -212 368 -262 597 -237 135 15 186 15 271 1 l67 -11 49
-117 c27 -64 82 -182 121 -263 40 -82 68 -148 62 -148 -27 0 -226 117 -328
192 -198 147 -346 230 -524 291 -87 31 -95 32 -260 31 -155 0 -358 -21 -416
-42 -14 -6 13 -31 129 -122 341 -268 548 -394 716 -437 92 -23 234 -13 366 27
83 26 129 33 222 37 l117 5 42 -83 c45 -91 176 -324 258 -459 28 -47 46 -87
41 -88 -17 -6 -200 97 -290 163 -215 157 -378 248 -550 306 -81 27 -114 33
-221 37 -156 6 -474 -28 -467 -50 3 -9 51 -47 271 -213 205 -155 375 -257 517
-311 67 -25 88 -28 195 -28 108 -1 132 3 235 33 98 29 131 34 225 35 l110 1
140 -210 c77 -116 157 -234 178 -263 25 -34 34 -52 25 -52 -34 0 -214 83 -304
139 -123 77 -307 171 -404 206 -192 68 -329 81 -511 44 -116 -22 -414 -119
-402 -129 18 -16 384 -250 448 -287 236 -136 425 -205 560 -205 103 0 154 15
315 93 135 64 242 98 311 99 22 0 46 -26 157 -172 71 -95 169 -220 215 -278
47 -58 84 -106 83 -108 -2 -1 -53 2 -113 8 l-109 10 -132 74 c-236 131 -467
207 -630 207 -116 0 -223 -22 -405 -82 l-152 -50 -120 16 c-164 21 -366 52
-509 76 -65 11 -122 19 -127 17 -8 -3 76 -41 366 -168 414 -182 908 -376 1243
-490 100 -35 181 -64 180 -65 -2 -2 -64 -11 -138 -20 -312 -39 -1076 -161
-1555 -248 -109 -20 -124 -25 -95 -31 44 -8 1078 -137 1380 -171 360 -41 921
-104 965 -107 l40 -3 3 351 2 351 53 7 c105 12 120 9 162 -34 21 -22 36 -42
32 -46 -3 -3 -35 -1 -70 5 -35 6 -71 11 -80 11 -16 0 -17 -69 -17 -945 0 -520
3 -945 8 -945 4 0 86 -16 182 -36 782 -158 2267 -331 3430 -400 364 -21 1581
-31 1972 -15 665 27 1416 88 2288 187 511 58 1230 168 1598 245 l102 22 0 944
0 945 -62 -7 -61 -7 34 41 c36 43 53 48 132 35 l37 -7 0 -347 c0 -191 2 -349
5 -351 2 -3 37 -2 77 3 860 92 2321 268 2333 280 3 3 -52 15 -122 26 -71 12
-229 40 -353 61 -454 79 -1031 168 -1243 192 l-108 12 153 52 c392 133 907
338 1468 585 173 76 190 83 186 88 -4 3 -135 -16 -391 -59 -33 -5 -124 -18
-203 -28 l-142 -19 -74 28 c-164 64 -333 101 -458 101 -178 0 -435 -88 -683
-235 -65 -38 -77 -42 -185 -52 -63 -6 -116 -10 -118 -9 -1 1 64 85 145 187 82
102 177 226 213 276 55 78 69 91 93 92 62 0 178 -35 282 -88 239 -119 356
-133 554 -66 172 60 340 151 625 339 124 83 173 121 164 127 -27 17 -287 97
-385 117 -282 58 -537 -11 -918 -248 -49 -31 -103 -62 -120 -70 -41 -18 -197
-81 -201 -81 -2 0 28 46 68 103 39 56 121 178 182 271 l111 168 105 -5 c74 -3
141 -14 225 -37 150 -40 264 -48 360 -26 84 20 226 86 349 163 117 72 514 369
515 384 1 4 -34 12 -76 18 -278 41 -477 40 -606 -3 -171 -58 -346 -154 -547
-301 -94 -69 -282 -175 -310 -175 -6 0 -3 12 8 27 42 61 177 295 296 517 l48
88 112 -4 c88 -4 138 -13 240 -42 214 -60 331 -49 527 49 153 76 275 159 527
358 105 82 149 123 140 128 -23 13 -229 39 -353 45 -199 10 -308 -13 -504
-108 -113 -56 -233 -132 -375 -237 -76 -57 -276 -171 -300 -171 -3 0 9 30 28
68 36 71 174 375 195 429 12 29 18 32 84 44 50 8 104 9 182 3 179 -15 281 -10
356 15 154 51 360 226 668 569 l83 92 -124 0 c-417 0 -615 -92 -963 -450 -87
-89 -241 -217 -251 -207 -3 2 14 51 37 108 23 57 72 196 110 309 l68 205 53
19 c41 14 98 20 248 26 107 4 213 13 235 20 165 50 346 219 614 574 97 129
125 172 113 175 -28 6 -221 -19 -332 -44 -132 -29 -210 -60 -302 -122 -90 -59
-290 -256 -390 -384 -68 -85 -216 -235 -224 -226 -2 2 9 49 25 105 28 97 87
343 111 465 11 56 14 59 55 77 71 31 114 40 230 50 61 6 135 15 165 21 157 31
302 154 483 410 79 112 256 404 247 407 -18 6 -226 -41 -326 -73 -56 -18 -125
-45 -155 -60 -145 -74 -307 -243 -472 -495 -56 -85 -196 -255 -204 -246 -2 2
7 82 21 177 14 96 31 238 37 315 l13 141 74 37 c50 25 113 45 191 61 145 30
187 45 257 91 73 49 177 180 267 336 48 83 208 410 203 415 -8 9 -251 -79
-346 -125 -165 -81 -309 -246 -453 -520 -57 -108 -147 -243 -180 -270 -9 -8
-11 47 -9 266 1 153 5 282 7 289 9 25 127 102 197 129 196 73 268 134 346 290
27 54 64 139 81 187 29 82 99 327 116 406 l7 34 -88 -48 c-311 -168 -406 -287
-530 -663 -61 -187 -122 -321 -135 -300 -5 7 -9 38 -9 68 0 30 -7 118 -15 195
-9 77 -18 168 -22 201 l-6 62 59 57 c33 32 97 85 143 119 122 89 170 167 205
337 17 82 33 272 39 451 5 142 12 142 -138 -5 -124 -123 -175 -200 -215 -323
-35 -109 -47 -181 -60 -352 -11 -141 -28 -242 -41 -242 -5 0 -9 11 -9 24 0 28
-40 229 -77 381 l-26 109 22 41 c12 23 62 83 112 134 145 149 178 248 165 502
-5 115 -40 417 -49 425 -6 7 -81 -86 -142 -176 -68 -99 -98 -162 -116 -245
-15 -69 -18 -285 -6 -490 4 -85 4 -132 -2 -120 -14 31 -161 476 -168 506 -7
35 36 117 104 199 120 145 142 252 102 500 -10 61 -73 337 -85 370 -10 29
-140 -194 -180 -310 -29 -85 -25 -296 8 -460 14 -69 28 -156 32 -195 l5 -70
-19 40 c-10 22 -41 92 -69 155 -27 63 -68 154 -90 201 l-41 86 15 49 c8 27 25
65 37 86 13 20 39 63 59 95 20 33 42 77 50 99 19 56 15 175 -10 279 -24 102
-122 395 -131 395 -9 0 -94 -182 -116 -245 -42 -126 -22 -343 50 -535 16 -43
40 -179 33 -187 -3 -3 -25 33 -48 78 -23 46 -82 154 -131 239 -103 178 -102
172 -38 305 22 44 44 102 50 128 20 93 -15 223 -126 456 l-58 124 -18 -39 c-9
-22 -29 -80 -43 -129 -46 -156 -30 -264 78 -525 36 -88 54 -139 44 -130 -3 3
-55 79 -115 170 -60 91 -133 196 -161 235 -28 38 -51 76 -51 85 0 18 39 79 83
130 17 18 26 35 21 36 -5 1 -22 5 -38 9 -16 3 -46 25 -67 47 -21 23 -40 40
-42 37 -2 -2 4 -44 14 -94 10 -49 18 -107 19 -128 l0 -38 -66 88 c-37 48 -77
99 -89 113 -40 44 -135 182 -135 195 0 7 14 28 31 46 l31 33 -24 17 c-25 20
-26 19 -43 -55 -6 -28 -7 -27 -51 44 -25 40 -62 94 -82 121 -35 48 -37 48 -48
27 -10 -19 -8 -28 15 -63 31 -47 54 -96 47 -102 -5 -5 -61 33 -134 92 -24 19
-53 35 -65 35 -12 0 -42 14 -66 30 -41 28 -45 29 -72 15 -42 -22 -121 -19
-152 5 -14 11 -33 20 -44 20 -26 -1 134 -151 210 -197 72 -44 130 -52 207 -29
58 17 130 21 130 7 0 -18 129 -220 188 -294 34 -43 62 -80 62 -83 0 -12 -64
30 -130 86 -181 151 -250 177 -425 158 -49 -5 -91 -11 -93 -12 -5 -6 154 -156
209 -197 71 -54 145 -89 191 -89 20 0 74 9 121 20 122 29 130 27 187 -50 100
-136 304 -449 297 -457 -3 -2 -39 38 -80 89 -129 161 -234 244 -342 273 -33 9
-111 19 -174 22 -96 5 -113 4 -106 -8 45 -74 197 -264 259 -322 113 -105 159
-122 315 -113 165 9 165 9 234 -110 81 -140 259 -493 255 -506 -5 -15 -84 81
-153 187 -68 104 -210 252 -274 285 -57 28 -205 66 -300 75 l-74 7 20 -33 c11
-19 46 -77 78 -129 72 -120 184 -269 238 -316 73 -64 115 -77 272 -85 78 -4
158 -13 180 -21 39 -14 41 -18 93 -144 96 -233 240 -650 228 -661 -10 -10
-102 136 -161 254 -97 197 -213 342 -318 401 -61 35 -163 73 -267 102 -117 32
-115 35 -64 -82 163 -373 273 -534 401 -589 26 -11 101 -28 167 -38 106 -17
207 -45 242 -69 19 -12 94 -336 129 -556 19 -124 45 -349 44 -396 l0 -35 -24
45 c-36 66 -64 143 -91 250 -64 247 -155 438 -253 528 -57 52 -162 119 -280
178 -116 58 -137 64 -127 37 4 -9 18 -68 32 -132 75 -353 153 -558 252 -663
50 -54 140 -102 257 -137 76 -24 176 -76 217 -114 25 -24 26 -26 33 -210 11
-286 -14 -670 -63 -972 l-19 -110 -8 69 c-8 75 -3 220 16 414 8 91 8 153 0
245 -19 209 -59 315 -181 467 -60 75 -209 230 -221 230 -5 0 -9 -12 -9 -28 0
-15 -12 -101 -26 -192 -34 -219 -44 -538 -20 -650 27 -128 80 -209 194 -301
111 -89 169 -147 212 -214 l41 -63 -26 -128 c-49 -242 -130 -531 -213 -764
l-37 -105 -3 90 c-2 49 2 117 7 150 5 33 19 114 30 180 11 66 23 163 26 215 8
116 -9 303 -35 380 -22 65 -85 180 -144 260 -54 74 -177 220 -185 220 -3 0
-17 -51 -30 -112 -13 -62 -32 -151 -42 -198 -39 -184 -53 -306 -53 -465 -1
-248 21 -298 228 -500 82 -79 124 -129 151 -179 l39 -69 -18 -51 c-48 -135
-183 -437 -304 -679 -74 -147 -136 -266 -138 -264 -12 12 33 258 68 367 72
226 89 317 95 505 l5 170 -31 95 c-18 52 -56 140 -85 196 -54 102 -164 274
-175 274 -9 0 -126 -333 -166 -471 -67 -230 -92 -409 -75 -529 17 -120 59
-198 191 -352 64 -74 131 -190 153 -264 10 -33 -248 -456 -477 -782 -43 -62
-81 -111 -83 -109 -11 11 42 209 82 307 85 212 128 375 144 556 11 122 1 204
-40 326 -31 91 -134 306 -187 390 l-30 48 -21 -53 c-11 -28 -52 -124 -90 -212
-118 -270 -187 -499 -206 -681 -15 -142 35 -282 165 -454 77 -103 102 -146
130 -229 l19 -54 -57 -76 c-168 -225 -577 -719 -604 -729 -17 -7 60 250 103
343 133 287 188 486 188 680 0 110 -17 190 -65 320 -42 112 -143 325 -154 325
-8 0 -202 -393 -249 -505 -50 -118 -101 -290 -118 -395 -27 -169 3 -275 134
-474 71 -107 101 -173 126 -271 13 -50 13 -50 -21 -90 -18 -21 -122 -132 -231
-245 l-197 -206 -175 -27 c-284 -43 -964 -125 -1293 -155 l-88 -8 6 40 c11 72
27 141 38 154 17 21 41 13 65 -23 12 -19 29 -35 38 -35 9 0 36 18 61 40 25 22
53 40 62 40 10 0 38 -13 64 -30 60 -38 116 -52 191 -48 59 3 59 3 73 42 7 22
17 85 23 140 5 56 14 117 19 136 6 19 11 75 11 123 0 78 5 105 45 225 56 170
73 185 122 109 15 -23 32 -46 38 -50 18 -14 101 -1 151 24 66 32 76 56 66 156
-7 74 -10 83 -51 130 l-43 52 21 56 c28 74 38 209 21 272 -9 29 -41 83 -85
143 -100 132 -99 129 -75 185 34 79 21 218 -28 297 -15 25 -23 65 -32 158 -6
68 -13 127 -15 130 -2 3 -8 50 -15 105 -17 155 -48 330 -75 438 -25 95 -46
207 -60 312 -3 28 -20 114 -37 193 -16 79 -28 155 -25 170 7 30 -7 131 -28
207 -30 114 -64 310 -72 427 -5 67 -5 68 34 115 28 34 43 65 53 108 7 33 18
80 25 105 7 25 20 81 30 125 9 44 21 89 25 100 5 11 11 33 15 49 3 15 13 35
20 43 8 8 15 25 15 38 0 13 14 50 30 82 16 31 30 65 30 75 0 20 26 124 35 138
15 24 75 207 75 228 0 33 18 62 38 62 10 0 28 8 42 17 13 9 46 29 73 44 27 14
54 37 60 50 13 26 72 59 155 86 45 14 66 32 150 120 104 111 132 152 132 194
0 15 7 43 15 63 17 39 8 98 -20 141 -19 31 -23 103 -13 280 7 142 6 166 -11
230 -23 84 -35 187 -36 315 -1 151 -16 323 -31 347 -7 11 -12 43 -11 70 1 46
-26 161 -76 318 -21 67 -24 70 -57 75 -20 4 -57 21 -82 38 -26 18 -58 36 -73
42 -17 6 -33 26 -46 54 -14 33 -28 47 -56 59 -50 20 -171 19 -175 -1 -2 -8 -1
-128 2 -266 3 -139 1 -260 -4 -270 -5 -12 -4 -39 3 -71 8 -35 9 -60 2 -78 -9
-24 -1 -105 17 -157 2 -8 6 -64 8 -125 2 -60 5 -139 8 -175 3 -46 -1 -82 -14
-125 -26 -81 -38 -184 -32 -278 l4 -78 -53 40 c-30 23 -60 41 -68 41 -8 0 -37
13 -65 29 -28 15 -68 34 -89 41 -44 14 -57 39 -57 105 0 24 -9 68 -20 96 -18
44 -20 71 -19 178 2 122 1 128 -28 186 -17 33 -33 83 -36 110 -7 61 -69 214
-108 268 -29 40 -53 109 -64 188 -9 60 -36 104 -80 130 -20 12 -35 26 -33 33
4 23 -22 92 -41 108 -11 9 -23 32 -26 50 -9 45 -42 85 -57 70 -21 -21 -46 -14
-50 14 -2 15 -11 32 -21 38 -15 9 -22 7 -34 -11 -19 -29 -45 -29 -58 -1 -6 11
-20 27 -32 35 -19 13 -23 12 -42 -8 -17 -18 -28 -21 -65 -17 -24 3 -49 1 -55
-5 -15 -15 -162 -77 -183 -77 -14 0 -18 -8 -18 -34 0 -18 -7 -39 -15 -46 -8
-7 -15 -25 -15 -40 0 -15 -9 -49 -21 -75 -15 -34 -19 -58 -15 -85 4 -29 1 -44
-13 -61 -15 -19 -18 -34 -13 -81 3 -41 0 -70 -11 -96 -14 -33 -27 -105 -41
-215 -3 -21 -23 -77 -44 -125 -65 -142 -81 -205 -80 -307 0 -58 -5 -105 -14
-130 -9 -22 -19 -70 -22 -105 -14 -128 -11 -123 -70 -117 -91 9 -151 -7 -204
-53 -26 -23 -60 -49 -76 -57 -28 -15 -30 -14 -49 11 -10 14 -23 26 -29 26 -5
0 -35 23 -66 50 -31 28 -65 51 -76 52 -43 3 -103 -2 -164 -13 -34 -6 -76 -9
-92 -6 -16 4 -47 0 -69 -8 -35 -12 -41 -12 -55 4 -18 19 -21 47 -7 55 5 3 17
40 26 81 14 65 15 88 4 170 -10 80 -9 102 4 142 21 66 26 106 37 278 l9 149
51 48 c47 46 50 52 50 98 0 27 4 51 9 54 5 3 15 30 21 58 7 29 24 84 37 121
13 38 26 89 28 115 2 26 8 94 13 152 5 58 5 109 1 114 -5 6 -19 5 -34 -2 -14
-7 -39 -12 -56 -12 -19 0 -38 -9 -52 -23 -22 -24 -37 -30 -132 -48 -62 -12
-121 -19 -203 -22 -46 -2 -67 -8 -81 -22 -40 -42 -175 -326 -200 -422 -9 -31
-20 -47 -41 -58 -16 -8 -37 -30 -46 -48 -9 -17 -28 -45 -42 -62 -23 -27 -24
-34 -17 -105 3 -41 6 -88 6 -105 -4 -294 15 -711 39 -865 5 -36 10 -68 10 -72
0 -14 74 -90 195 -202 122 -113 221 -180 330 -226 33 -14 76 -34 95 -45 58
-31 180 -86 259 -115 80 -29 129 -72 183 -162 45 -73 119 -326 143 -483 38
-256 45 -294 71 -365 37 -101 36 -143 -4 -200 -19 -26 -55 -111 -88 -205 -30
-88 -80 -217 -109 -287 -52 -122 -80 -207 -140 -418 -29 -103 -102 -260 -139
-300 -13 -14 -32 -38 -42 -55 -10 -16 -32 -47 -48 -68 -25 -31 -31 -49 -34
-104 -3 -37 1 -97 8 -135 13 -64 12 -71 -8 -112 -12 -24 -22 -48 -22 -55 0 -6
-20 -43 -45 -83 -41 -65 -45 -79 -45 -134 0 -65 20 -133 66 -226 l28 -57 -27
-38 c-15 -21 -47 -56 -73 -77 -68 -57 -104 -141 -104 -243 0 -43 5 -98 11
-123 l10 -45 -70 -65 c-72 -67 -104 -119 -127 -205 -20 -75 -17 -122 16 -219
l29 -87 -45 -32 c-51 -36 -49 -22 -25 -192 5 -38 10 -75 10 -82 1 -16 38 -51
74 -70 41 -21 78 -19 129 7 l46 23 41 -33 c23 -19 41 -35 41 -37 0 -2 -11 -26
-25 -54 -23 -45 -26 -63 -28 -182 l-2 -132 36 -17 c43 -20 91 -89 194 -275 79
-144 62 -135 285 -154 152 -13 167 -13 265 -4 55 6 63 10 103 52 l42 46 68 -7
c37 -3 92 -13 122 -21 30 -9 94 -18 142 -22 l88 -6 10 -36 c18 -66 16 -69 -52
-75 -69 -7 -707 -39 -1103 -56 -137 -5 -356 -15 -485 -20 -496 -21 -801 -13
-2410 66 -170 8 -159 2 -153 76 3 35 11 74 18 88 7 14 16 52 20 85 4 33 24
101 45 150 20 50 47 117 60 150 13 33 40 101 61 150 20 50 43 118 49 152 9 46
19 66 36 78 20 13 23 23 22 68 -1 60 15 140 44 212 11 28 30 82 43 120 31 96
54 146 76 170 48 53 158 328 193 485 58 264 60 288 58 670 -2 462 -24 677 -86
875 -11 33 -11 48 0 85 18 59 1 145 -32 166 -42 28 -35 126 12 165 25 20 97
36 159 35 l50 -1 3 -45 c5 -62 16 -74 53 -54 33 17 49 12 49 -16 0 -38 31
-100 50 -100 16 0 19 13 26 88 5 48 8 158 8 245 -1 172 7 191 48 121 34 -57
40 -27 18 86 -11 57 -18 110 -15 118 3 8 -2 34 -10 58 -8 24 -18 68 -21 98 -6
49 -5 54 14 60 33 11 60 -10 107 -83 53 -82 58 -86 118 -101 26 -7 50 -16 53
-21 3 -5 16 -9 29 -9 32 0 39 27 39 155 1 67 -5 124 -18 172 -22 84 -15 112
40 175 18 20 36 52 39 71 12 62 -65 249 -216 527 -30 55 -41 84 -74 192 -14
46 -15 61 -5 73 12 14 10 58 -6 149 -6 35 -3 42 18 60 58 48 118 127 118 155
0 32 -36 69 -110 111 -63 36 -220 199 -220 228 0 29 60 139 116 213 24 31 59
83 79 115 93 152 124 195 179 250 32 32 74 79 94 104 20 25 60 71 90 103 29
32 63 80 76 105 28 54 52 78 120 117 27 15 84 60 126 99 86 80 217 153 297
164 40 6 49 11 51 31 2 13 -4 42 -12 65 -18 45 -110 151 -148 170 -20 10 -23
20 -26 79 -3 78 4 89 94 133 35 17 58 37 75 66 29 50 75 97 107 109 13 5 50 9
82 9 56 0 59 1 65 29 10 46 -4 100 -31 118 -13 8 -24 21 -24 29 0 8 -26 27
-57 43 -32 16 -69 41 -82 55 -29 31 -58 33 -131 9 -42 -14 -58 -14 -83 -5 -25
9 -35 9 -53 -3 -23 -15 -33 -39 -55 -140 -9 -41 -22 -68 -40 -85 -15 -14 -50
-59 -77 -100 -27 -41 -56 -81 -65 -89 -9 -7 -17 -22 -17 -31 0 -10 -15 -28
-34 -39 -19 -12 -53 -46 -76 -76 -23 -30 -56 -63 -74 -73 -20 -12 -41 -38 -55
-68 -27 -57 -68 -114 -82 -114 -19 0 -91 -65 -121 -107 -16 -24 -76 -98 -134
-165 -58 -68 -115 -142 -125 -165 -11 -23 -32 -51 -48 -62 -21 -15 -30 -32
-35 -65 -6 -39 -11 -45 -48 -62 -23 -10 -74 -51 -115 -91 -46 -45 -90 -78
-118 -89 -25 -9 -45 -20 -45 -25 0 -10 -64 -49 -80 -49 -9 0 -11 10 -6 38 17
89 15 121 -10 167 -15 29 -22 55 -18 69 3 14 -2 39 -14 62 -18 35 -19 42 -6
67 8 15 18 27 23 27 4 0 18 31 31 69 l23 69 -28 57 c-25 54 -26 61 -14 98 13
38 12 41 -13 61 -14 11 -29 31 -32 42 -7 23 -76 74 -99 74 -8 0 -26 9 -41 21
-15 11 -33 18 -42 15 -23 -9 -72 21 -89 55 -49 94 -209 93 -400 -2 -118 -58
-206 -115 -237 -151 -26 -30 -28 -39 -28 -119 0 -68 -3 -88 -15 -93 -8 -3 -15
-14 -15 -25 0 -10 -10 -25 -23 -33 -43 -29 -60 -159 -32 -251 8 -26 12 -54 9
-62 -3 -8 9 -41 27 -74 24 -46 37 -61 53 -61 12 0 26 4 32 10 17 17 58 -13 84
-61 14 -25 35 -61 47 -80 13 -18 21 -38 20 -44 -5 -15 -70 -17 -134 -4 -32 7
-73 13 -91 14 -20 1 -48 15 -74 36 -56 46 -79 58 -107 59 -57 0 -211 99 -211
135 0 5 -16 20 -36 33 -19 12 -39 33 -43 45 -11 27 -30 46 -100 97 -42 30 -59
51 -72 86 -10 26 -29 59 -42 73 -13 14 -36 49 -52 76 -30 53 -59 88 -185 225
-108 117 -166 192 -185 237 -9 21 -26 49 -39 63 -12 14 -30 37 -39 51 -9 15
-46 62 -82 104 -99 116 -113 168 -79 285 23 78 28 125 15 148 -25 47 -167 103
-185 73 -3 -4 -28 -11 -55 -15 -55 -7 -122 -54 -178 -124 -28 -35 -31 -43 -19
-54 25 -26 56 -98 62 -145 7 -51 35 -107 58 -116 17 -7 46 -90 46 -132 0 -18
-13 -62 -30 -98 -24 -54 -30 -80 -30 -139 0 -68 2 -74 32 -105 18 -18 46 -57
62 -87 83 -147 128 -208 229 -310 59 -59 123 -131 141 -160 18 -28 52 -71 75
-96 24 -25 64 -76 91 -115 26 -38 57 -75 68 -82 17 -10 132 -174 132 -189 0
-3 20 -40 44 -82 25 -42 52 -95 61 -118 l16 -40 -62 -95 c-43 -64 -79 -137
-115 -230 -55 -144 -86 -211 -203 -434 -127 -241 -141 -270 -141 -284 0 -25
-130 -363 -166 -431 l-34 -64 28 -23 c15 -13 67 -44 115 -69 l89 -45 -8 -37
c-21 -89 -1 -306 30 -341 24 -27 94 -19 166 18 44 22 62 40 91 87 64 106 78
159 89 337 9 152 19 221 34 245 22 36 48 216 47 330 -1 116 1 126 28 180 68
135 119 292 136 417 10 75 46 205 56 205 6 0 18 -19 28 -43 17 -38 76 -97 99
-97 23 0 102 -122 102 -158 0 -7 11 -32 24 -55 25 -44 51 -194 40 -234 -9 -32
14 -128 40 -166 15 -21 25 -56 29 -96 8 -73 32 -161 58 -213 22 -44 24 -67 6
-101 -18 -35 -14 -95 12 -144 26 -52 26 -63 2 -105 -28 -48 -81 -215 -81 -255
0 -22 -9 -45 -23 -62 -12 -15 -31 -54 -41 -87 -10 -32 -22 -68 -27 -79 -14
-36 -28 -128 -29 -200 0 -38 -5 -95 -11 -125 -6 -36 -7 -94 -1 -165 8 -105 8
-114 -20 -204 -31 -105 -38 -234 -17 -360 9 -51 8 -85 0 -138 -11 -65 -15 -72
-58 -108 -42 -35 -45 -40 -39 -75 5 -34 3 -39 -29 -61 -67 -48 -103 -106 -174
-282 -22 -55 -51 -113 -63 -130 -32 -43 -108 -201 -108 -224 0 -10 -12 -43
-26 -73 -75 -162 -87 -212 -103 -445 -6 -94 -6 -156 1 -190 5 -27 14 -68 18
-90 4 -22 13 -41 19 -43 6 -2 11 -10 11 -18 0 -16 41 -39 87 -49 49 -10 98 11
137 58 79 97 167 329 181 476 5 55 16 94 45 155 21 44 44 95 50 113 16 43 47
54 215 73 44 6 86 12 94 15 8 3 29 -11 50 -33 67 -71 215 -172 252 -172 6 0
32 -10 56 -22 36 -18 47 -20 61 -10 54 38 63 26 70 -87 4 -78 8 -94 28 -114
38 -39 45 -70 34 -163 -10 -96 -14 -104 -40 -104 -22 0 -40 -28 -40 -63 0 -14
-20 -46 -50 -81 -28 -32 -56 -69 -64 -84 -8 -15 -23 -36 -35 -46 -12 -11 -21
-30 -21 -43 0 -13 -11 -48 -25 -76 -13 -29 -27 -72 -30 -97 -4 -25 -15 -81
-26 -125 -14 -60 -20 -136 -25 -305 -5 -183 -9 -236 -25 -282 -12 -35 -19 -85
-19 -130 0 -39 -4 -97 -10 -127 -5 -31 -12 -72 -15 -91 -9 -63 -5 -62 -181
-45 -367 35 -1087 120 -1278 152 l-99 16 -108 111 c-60 60 -109 114 -109 119
0 5 -36 47 -81 92 -44 46 -87 92 -95 104 -8 11 -21 21 -29 21 -7 0 -23 13 -35
30 -21 29 -21 31 -4 92 26 94 56 157 122 254 107 159 142 250 142 369 0 172
-76 412 -228 720 -35 72 -82 167 -105 213 l-40 82 -21 -37 c-85 -152 -178
-397 -196 -519 -28 -185 29 -433 175 -759 56 -126 125 -348 112 -361 -14 -14
-657 776 -657 807 0 5 14 44 30 87 20 51 58 114 111 187 45 61 100 147 122
193 36 76 41 92 45 180 8 174 -48 396 -174 697 -37 88 -84 200 -104 248 l-37
89 -52 -90 c-122 -213 -197 -406 -208 -536 -12 -153 35 -395 122 -626 26 -69
53 -141 60 -160 19 -51 54 -221 45 -215 -37 23 -434 633 -530 813 l-33 63 23
57 c36 89 74 151 141 227 79 91 113 140 152 223 31 66 32 70 32 212 0 105 -5
167 -18 225 -32 138 -87 324 -149 500 -33 94 -62 176 -64 184 -8 26 -152 -199
-219 -344 -72 -154 -80 -190 -79 -360 2 -172 26 -306 94 -518 40 -124 74 -302
68 -351 -6 -50 -245 434 -389 788 l-69 168 37 67 c26 47 75 104 169 198 112
112 139 144 168 206 79 165 68 432 -40 901 -18 82 -36 151 -38 153 -6 7 -117
-123 -183 -215 -101 -140 -152 -250 -169 -362 -25 -166 -15 -359 30 -591 12
-61 22 -259 16 -304 -2 -17 -59 143 -111 315 -56 185 -117 426 -144 571 l-18
96 53 77 c37 53 79 98 139 145 175 140 230 221 258 378 23 130 13 363 -27 633
-17 118 -33 216 -35 218 -1 1 -42 -39 -90 -90 -176 -187 -259 -321 -291 -468
-26 -123 -29 -309 -9 -503 14 -134 16 -194 9 -272 l-9 -100 -13 65 c-21 109
-51 367 -62 525 -11 163 -12 521 -1 625 l6 65 69 47 c45 31 102 58 163 78 135
44 202 78 254 130 79 79 132 190 194 400 37 129 99 409 92 417 -15 15 -275
-127 -369 -201 -118 -93 -210 -271 -282 -545 -31 -118 -82 -251 -112 -295 -11
-16 -12 -10 -8 40 22 242 76 582 125 779 41 165 33 150 100 179 33 15 90 32
127 37 37 6 94 14 127 20 195 30 299 153 486 575 33 75 58 139 55 141 -7 7
-138 -25 -221 -55 -215 -76 -321 -181 -456 -452 -71 -143 -168 -296 -169 -267
-1 60 238 725 283 784 17 23 81 35 222 42 170 9 202 21 298 119 80 80 127 145
229 316 l78 129 -73 -7 c-111 -11 -234 -43 -301 -79 -82 -43 -192 -157 -276
-284 -68 -103 -160 -215 -160 -194 0 15 186 379 259 507 75 131 64 126 254
117 118 -6 124 -5 174 20 90 46 193 153 338 351 l58 79 -119 -6 c-237 -12
-299 -50 -547 -328 -47 -52 -48 -53 -26 -14 38 69 267 410 303 450 l33 40 64
-13 c35 -6 87 -17 116 -23 79 -17 132 -5 216 51 78 52 256 214 247 224 -4 3
-45 10 -93 15 -156 18 -250 -14 -390 -134 -79 -67 -149 -117 -155 -110 -2 2
25 41 60 87 72 93 125 172 163 248 24 47 28 50 64 50 21 0 58 -7 81 -15 111
-39 185 -11 343 129 32 28 31 46 -5 91 -20 25 -24 26 -82 20 -76 -9 -155 -49
-240 -124 -35 -31 -78 -64 -96 -75 l-32 -18 7 23 c13 43 77 153 127 217 39 49
45 64 33 68 -8 4 -23 0 -32 -7 -24 -20 -142 -183 -194 -266 -24 -40 -47 -73
-51 -73 -8 0 -15 44 -28 175 -5 55 -16 123 -25 152 -18 60 -88 158 -147 205
l-41 32 6 -139z m4310 -9936 c124 -32 192 -248 167 -531 -16 -186 -50 -306
-111 -395 -48 -69 -79 -83 -181 -83 -101 0 -124 6 -105 25 9 9 19 94 30 276
10 145 24 363 33 484 11 154 12 221 5 223 -6 2 -11 7 -11 11 0 9 125 2 173
-10z m2877 -10 c0 -17 -3 -19 -14 -10 -9 7 -42 9 -102 5 l-89 -7 3 -41 c2 -22
16 -240 31 -484 18 -280 33 -447 40 -456 10 -12 3 -15 -39 -18 -50 -3 -58 0
-41 17 5 6 -1 154 -15 355 -12 190 -26 406 -31 480 l-8 135 -87 -1 c-55 0 -93
-6 -103 -14 -13 -11 -15 -9 -15 9 0 11 3 21 8 22 43 4 370 27 410 28 47 1 52
-1 52 -20z m-1824 -44 c9 -22 -7 -41 -18 -21 -7 13 -27 16 -108 16 l-100 0 0
-67 c0 -38 -3 -125 -7 -195 l-6 -128 76 0 c45 0 77 -4 77 -10 0 -6 -31 -10
-73 -10 l-74 0 -6 -172 c-10 -266 -9 -392 5 -406 9 -9 -1 -12 -47 -12 -54 0
-57 1 -43 18 13 14 17 67 22 295 6 247 5 277 -8 277 -9 0 -16 7 -16 15 0 8 6
15 13 15 24 0 38 384 15 393 -7 3 56 6 140 6 125 1 154 -2 158 -14z m678 -37
c8 -29 42 -161 76 -293 144 -565 162 -631 176 -652 14 -23 14 -23 -36 -23 -46
0 -51 2 -45 19 5 17 -6 71 -46 224 l-10 39 -57 -6 c-31 -3 -94 -5 -138 -6
l-82 0 -22 -119 c-12 -66 -19 -129 -15 -140 5 -18 2 -21 -19 -21 -29 0 -30 2
-17 28 8 14 123 606 182 935 15 82 32 86 53 15z m770 -1054 c3 -9 6 -44 6 -78
0 -59 -18 -116 -97 -304 -5 -11 8 -13 58 -11 52 2 65 0 67 -13 3 -13 -12 -17
-83 -23 -47 -4 -89 -5 -92 -1 -3 3 19 71 51 151 44 114 56 158 56 200 l0 55
-46 0 -47 0 5 -50 c5 -47 4 -50 -19 -50 -23 0 -24 2 -21 62 3 71 9 75 104 77
39 1 53 -3 58 -15z m-2218 -36 c-3 -24 -11 -123 -17 -220 -12 -173 -13 -178
-34 -178 -20 0 -22 4 -18 48 16 189 19 248 12 257 -4 6 0 38 9 73 13 48 21 62
35 62 17 0 19 -5 13 -42z m733 3 c12 -8 14 -44 12 -207 -1 -109 -7 -206 -12
-216 -8 -14 -22 -18 -70 -18 -89 0 -99 8 -99 80 0 53 2 60 20 60 17 0 20 -7
20 -51 l0 -50 48 3 47 3 3 78 3 77 -59 0 c-39 0 -64 5 -71 14 -11 13 -7 186 5
224 4 14 131 17 153 3z m753 -36 c4 -22 7 -119 7 -216 l1 -177 -65 -7 c-94
-10 -105 -4 -105 56 0 27 0 52 0 57 -1 4 8 8 20 10 18 3 20 -2 20 -42 l0 -46
45 0 45 0 0 80 0 80 -58 0 c-32 0 -63 5 -70 12 -17 17 -17 224 1 232 6 2 43 4
82 3 l70 -2 7 -40z"/>
<path d="M6606 1738 c-6 -37 -56 -864 -56 -915 0 -32 1 -33 44 -33 80 0 128
66 171 235 59 231 54 525 -12 663 -27 58 -39 66 -100 76 -41 6 -42 6 -47 -26z"/>
<path d="M8382 1560 c-39 -190 -103 -543 -99 -546 9 -9 257 9 257 19 0 8 -135
546 -144 572 -2 6 -8 -15 -14 -45z"/>
<path d="M7600 485 l0 -85 45 0 45 0 0 85 0 85 -45 0 -45 0 0 -85z"/>
<path d="M8340 485 l0 -85 51 0 52 0 -7 61 c-3 34 -6 73 -6 85 0 22 -4 24 -45
24 l-45 0 0 -85z"/>
<path d="M13426 11593 c-9 -22 128 -155 143 -140 13 13 15 47 3 47 -4 0 -38
25 -74 54 -53 44 -67 52 -72 39z"/>
<path d="M13674 11395 c-7 -19 -14 -38 -14 -43 0 -12 171 -175 177 -169 2 3
-2 47 -9 97 -10 74 -17 95 -33 104 -11 6 -32 19 -47 29 -39 25 -57 21 -74 -18z"/>
<path d="M344 8653 c3 -10 26 -91 50 -180 69 -249 135 -415 206 -518 58 -84
135 -137 285 -195 33 -13 93 -45 133 -71 39 -27 72 -46 72 -44 0 3 -20 45 -44
93 -24 48 -58 137 -75 197 -83 283 -187 454 -349 573 -65 48 -258 162 -275
162 -5 0 -6 -8 -3 -17z"/>
</g>
</svg>
