<?xml version="1.0" standalone="no"?>
<!DOCTYPE svg PUBLIC "-//W3C//DTD SVG 20010904//EN"
 "http://www.w3.org/TR/2001/REC-SVG-20010904/DTD/svg10.dtd">
<svg version="1.0" xmlns="http://www.w3.org/2000/svg"
 width="1600.000000pt" height="1398.000000pt" viewBox="0 0 1600.000000 1398.000000"
 preserveAspectRatio="xMidYMid meet">

<g transform="translate(0.000000,1398.000000) scale(0.100000,-0.100000)"
fill="#000000" stroke="none">
<path d="M0 6990 l0 -6990 3668 2 c2017 1 3627 5 3577 9 -49 4 -247 14 -440
23 -192 8 -395 20 -450 26 -55 5 -235 21 -400 35 -667 56 -1029 96 -1617 180
-495 71 -993 157 -1086 186 -17 6 -36 19 -42 28 -11 21 -9 1861 2 1861 4 0 39
-7 79 -15 40 -9 74 -13 76 -11 8 7 -14 40 -50 74 l-34 33 -82 -10 c-45 -6 -86
-13 -92 -16 -5 -4 -9 -144 -9 -341 0 -288 -2 -335 -15 -340 -26 -10 -395 26
-575 55 -30 5 -93 12 -140 15 -124 9 -315 31 -725 81 -71 9 -164 20 -205 25
-41 5 -127 16 -190 24 -63 8 -146 17 -185 21 -91 8 -293 34 -325 41 -24 6 -24
6 -4 14 12 5 133 27 270 49 137 23 299 50 359 60 106 19 283 47 560 90 72 11
229 32 350 46 120 15 225 30 232 34 19 10 -38 36 -192 86 -281 92 -811 295
-992 381 -28 13 -54 24 -57 24 -3 0 -36 14 -73 31 -38 17 -111 48 -163 69
-243 98 -352 152 -275 136 120 -25 450 -78 581 -92 l159 -18 84 32 c118 46
310 92 406 99 45 3 111 1 148 -6 148 -26 370 -113 557 -220 84 -47 104 -54
175 -62 44 -4 97 -8 118 -8 33 -1 37 1 28 17 -5 9 -18 26 -28 37 -36 40 -142
175 -267 343 -125 167 -129 171 -160 166 -117 -19 -184 -41 -284 -89 -216
-104 -313 -120 -481 -79 -99 25 -217 72 -321 127 -137 73 -531 328 -527 341 4
14 151 64 302 104 128 33 151 36 275 36 126 0 141 -2 235 -33 148 -49 294
-118 438 -205 71 -43 159 -92 195 -108 90 -41 172 -69 172 -58 0 4 -17 31 -37
59 -60 79 -131 185 -224 331 l-87 135 -95 3 c-83 2 -113 -2 -239 -35 -118 -30
-160 -37 -243 -37 -92 0 -108 3 -200 38 -125 47 -230 104 -367 198 -124 85
-408 306 -408 318 0 19 228 44 405 45 179 0 180 0 275 -34 168 -59 290 -127
525 -291 134 -94 308 -190 320 -178 3 3 -13 36 -36 74 -69 113 -234 405 -274
484 l-37 73 -126 -6 c-92 -4 -142 -11 -182 -25 -137 -50 -297 -65 -404 -37
-155 40 -454 227 -722 449 -33 28 -74 61 -90 72 -19 15 -26 25 -19 32 12 12
211 39 350 48 272 17 497 -70 845 -327 97 -71 301 -189 328 -189 7 0 -16 57
-51 128 -35 70 -90 188 -123 263 l-59 137 -72 12 c-53 9 -105 10 -190 4 -279
-21 -339 -8 -528 115 -64 41 -356 322 -474 456 -25 28 -56 63 -70 79 l-26 28
180 -5 c262 -9 377 -38 536 -137 129 -81 193 -134 333 -275 115 -115 267 -245
288 -245 4 0 -4 30 -18 68 -46 119 -141 385 -170 474 l-28 88 -51 16 c-32 10
-116 19 -240 24 -104 5 -206 13 -225 18 -173 44 -378 233 -640 587 -24 33 -61
83 -82 110 -47 62 -45 63 127 41 242 -32 394 -85 525 -184 114 -87 280 -258
364 -377 34 -48 200 -208 204 -197 1 5 -22 105 -52 223 -30 118 -62 256 -72
307 l-17 92 -46 21 c-65 28 -149 46 -281 58 -63 5 -141 19 -172 30 -147 51
-288 188 -457 443 -56 85 -190 300 -219 352 -11 20 252 -40 377 -86 122 -44
181 -81 298 -185 62 -55 186 -210 268 -333 46 -69 115 -159 155 -200 69 -72
71 -74 66 -42 -54 326 -78 600 -80 926 -1 285 0 313 35 634 l20 184 -40 47
c-22 26 -79 74 -128 108 -154 105 -210 199 -248 419 -17 96 -42 491 -32 501
12 12 126 -90 220 -196 106 -119 165 -288 186 -531 13 -146 30 -265 41 -294 6
-17 10 -10 18 34 6 30 20 105 32 165 12 61 33 156 47 213 l25 102 -28 44 c-16
24 -64 80 -106 124 -135 141 -158 195 -165 392 -4 95 0 178 12 280 10 80 21
167 24 194 3 27 11 51 16 52 13 4 106 -115 168 -214 85 -137 114 -292 97 -522
-5 -69 -9 -165 -9 -215 1 -103 -3 -108 59 95 18 58 52 161 77 229 l44 123 -21
52 c-11 28 -51 90 -88 137 -38 47 -79 110 -92 140 -32 73 -37 193 -16 330 21
132 85 399 96 399 15 0 115 -171 149 -254 55 -133 59 -309 11 -526 -11 -52
-23 -129 -26 -170 l-5 -75 31 65 c18 36 40 85 50 110 10 25 43 98 74 163 31
65 56 128 56 140 0 37 -38 126 -81 189 -72 105 -84 141 -83 248 0 69 8 123 27
195 39 150 112 355 126 355 14 0 77 -130 107 -220 48 -141 37 -300 -36 -529
-34 -106 -50 -209 -32 -197 7 4 12 11 12 15 0 10 150 278 208 373 50 81 49 89
-16 233 -59 130 -64 180 -28 307 29 101 155 379 170 374 20 -5 85 -234 86
-298 0 -81 -37 -214 -103 -363 -72 -165 -55 -156 77 40 70 103 145 211 168
241 38 51 40 56 28 85 -7 16 -34 57 -61 90 -70 88 -83 130 -76 243 7 106 53
306 71 306 13 0 64 -80 98 -155 19 -43 22 -66 21 -160 0 -62 -8 -140 -17 -178
-17 -72 -21 -147 -8 -147 10 1 248 309 272 354 16 31 19 27 -111 141 -78 68
-97 128 -106 330 l-6 139 43 -34 c59 -47 127 -141 145 -203 9 -29 20 -95 25
-147 14 -133 21 -180 29 -180 3 0 26 33 50 73 52 83 170 246 194 266 9 7 23
11 32 8 11 -5 2 -23 -39 -78 -65 -85 -132 -212 -116 -217 10 -4 43 20 160 114
63 50 126 80 188 88 61 8 85 -2 108 -45 15 -30 15 -32 -13 -61 -39 -42 -140
-117 -181 -134 -44 -18 -104 -18 -166 1 -27 8 -64 15 -82 15 -30 0 -36 -5 -59
-50 -32 -63 -109 -182 -144 -223 -117 -137 -83 -136 78 0 84 72 180 123 249
134 44 6 221 -7 232 -17 2 -3 -16 -24 -41 -47 -25 -23 -72 -67 -105 -97 -80
-74 -176 -130 -233 -137 -30 -3 -78 3 -135 17 -106 26 -136 21 -174 -28 -84
-108 -307 -450 -299 -459 3 -2 22 17 43 44 21 26 82 91 134 144 110 110 168
143 286 164 80 15 224 20 224 9 0 -23 -172 -237 -257 -321 -113 -111 -129
-118 -303 -119 -80 0 -155 -1 -166 -2 -16 -2 -40 -36 -102 -144 -115 -205
-250 -478 -237 -478 14 0 85 88 151 186 88 132 202 250 282 291 31 17 95 40
142 51 92 22 220 38 220 28 0 -14 -153 -260 -205 -330 -29 -40 -83 -100 -119
-133 -81 -74 -137 -93 -277 -93 -97 0 -193 -19 -214 -42 -43 -48 -299 -757
-280 -776 5 -5 34 28 72 85 12 18 52 91 88 163 132 263 229 369 405 441 76 31
268 85 275 77 14 -14 -166 -386 -245 -506 -100 -151 -166 -191 -361 -221 -83
-12 -147 -28 -188 -46 -56 -25 -62 -31 -72 -69 -6 -22 -17 -63 -24 -91 -39
-139 -95 -461 -114 -650 -7 -60 -14 -130 -17 -154 -7 -58 8 -47 45 32 33 72
48 115 96 288 73 266 176 430 335 537 74 49 283 153 292 144 9 -10 -54 -294
-97 -437 -20 -66 -59 -166 -86 -222 -79 -162 -143 -214 -350 -282 -91 -30
-198 -89 -228 -125 -20 -24 -27 -467 -12 -696 12 -181 43 -433 63 -523 l12
-52 9 60 c9 68 4 231 -13 380 -14 117 -7 317 15 425 19 97 67 195 143 295 68
90 227 263 235 255 7 -6 41 -243 62 -420 34 -302 10 -501 -75 -625 -17 -25
-73 -81 -123 -123 -121 -102 -164 -146 -211 -215 l-40 -57 18 -98 c44 -240
131 -551 242 -872 4 -12 7 -12 13 -1 14 22 3 207 -19 321 -42 223 -49 352 -30
525 12 98 34 170 82 255 44 79 157 235 221 305 l54 60 21 -90 c71 -302 102
-513 102 -683 0 -241 -23 -296 -203 -477 -148 -149 -221 -256 -207 -303 43
-143 296 -692 419 -912 l31 -55 0 40 c0 70 -28 228 -55 305 -87 254 -130 525
-106 678 14 93 59 208 129 337 66 121 143 238 157 237 11 -1 163 -442 193
-563 23 -94 52 -295 52 -366 0 -51 -22 -142 -47 -200 -21 -46 -77 -124 -148
-208 -28 -33 -61 -73 -72 -90 -26 -37 -83 -171 -83 -194 0 -30 150 -279 355
-589 143 -216 199 -290 203 -269 6 31 -38 208 -69 275 -74 163 -153 504 -152
657 1 90 5 113 43 225 55 165 189 435 212 428 16 -6 193 -433 231 -558 69
-228 90 -358 77 -474 -15 -130 -40 -181 -204 -412 -23 -33 -55 -95 -71 -137
l-28 -77 37 -53 c33 -48 190 -253 269 -351 147 -183 350 -411 355 -398 8 24
-53 243 -90 322 -22 47 -52 110 -65 140 -59 129 -111 318 -133 484 -13 103 7
227 61 381 47 131 136 315 153 315 16 0 175 -321 238 -479 98 -248 129 -366
130 -502 1 -123 -27 -195 -143 -375 -65 -100 -100 -178 -119 -265 -12 -51 -11
-59 6 -83 11 -14 24 -26 30 -26 12 0 147 -145 216 -230 20 -25 74 -85 120
-134 l85 -89 129 -23 c71 -13 174 -28 229 -34 55 -6 125 -15 155 -20 30 -5
105 -14 165 -19 61 -6 209 -22 330 -36 321 -37 526 -56 546 -50 21 7 24 25 44
236 8 86 19 168 24 182 5 14 15 128 20 254 6 128 18 264 27 309 9 43 20 99 24
124 4 25 20 75 34 110 14 35 26 68 26 74 0 14 85 142 116 176 12 14 34 51 48
82 14 32 33 59 44 63 25 7 31 29 39 137 6 84 5 88 -25 135 -24 38 -31 64 -37
125 -3 42 -12 84 -19 94 -12 16 -15 16 -45 -2 -29 -17 -33 -17 -64 -2 -17 9
-54 23 -81 32 -53 17 -131 71 -213 149 l-52 49 -78 -7 c-175 -15 -246 -36
-259 -77 -3 -13 -24 -62 -45 -110 -27 -59 -42 -111 -49 -165 -20 -160 -93
-357 -166 -454 -49 -63 -88 -84 -145 -76 -128 17 -164 193 -114 552 17 118 36
177 105 322 29 59 87 185 130 278 109 235 147 302 208 362 35 35 52 60 52 77
0 13 15 44 34 69 18 24 38 59 45 78 14 43 16 154 6 289 -8 107 -1 160 40 309
10 38 13 79 9 140 -7 111 10 382 29 446 8 28 25 84 37 125 12 41 30 84 41 96
11 12 19 35 19 55 0 19 19 86 41 149 50 142 56 178 35 218 -19 37 -21 124 -4
152 10 16 8 34 -15 102 -33 103 -57 195 -57 224 0 12 -13 51 -30 86 -25 52
-30 76 -30 135 0 88 -22 197 -54 266 -13 29 -34 78 -47 110 -21 52 -32 64 -91
102 -47 31 -73 56 -88 85 -11 22 -24 40 -29 40 -13 0 -29 -43 -45 -124 -32
-153 -101 -381 -148 -484 -24 -56 -28 -76 -28 -161 0 -94 -28 -268 -65 -401
-8 -30 -19 -123 -25 -207 -10 -167 -30 -244 -81 -325 -42 -65 -116 -111 -189
-116 -55 -4 -57 -3 -68 24 -21 57 -35 179 -28 266 6 86 6 87 -22 106 -15 11
-52 32 -82 47 -66 33 -100 62 -100 87 0 10 11 36 24 57 14 22 62 137 106 257
82 219 181 437 259 569 23 39 62 120 87 180 25 61 62 148 81 195 20 47 60 122
89 166 30 45 56 88 59 96 11 27 -137 300 -192 356 -7 7 -13 18 -13 24 0 5 -15
25 -34 43 -19 18 -60 69 -92 112 -31 43 -67 87 -79 98 -12 11 -53 63 -92 115
-39 52 -101 124 -138 159 -80 77 -124 134 -200 261 -32 52 -69 107 -83 122
-46 49 -39 144 19 275 23 52 23 53 5 110 -10 32 -31 72 -46 88 -37 40 -50 67
-50 107 0 35 -31 112 -57 140 -14 15 -13 20 6 51 12 19 46 55 76 80 44 36 66
47 108 52 28 4 58 12 64 17 31 25 147 -36 169 -87 12 -30 11 -42 -6 -111 -37
-146 -24 -209 64 -303 57 -61 159 -204 170 -237 3 -11 14 -29 24 -40 9 -10 37
-44 62 -74 24 -30 60 -72 80 -94 55 -61 62 -69 111 -126 25 -30 62 -80 81
-110 20 -30 50 -72 66 -93 17 -21 36 -53 42 -71 7 -21 34 -52 75 -85 36 -29
65 -56 65 -61 0 -4 39 -48 88 -97 91 -95 154 -135 231 -148 28 -5 58 -21 91
-49 43 -37 60 -44 138 -59 142 -27 199 -20 185 22 -3 9 -26 51 -51 93 -44 72
-81 106 -103 92 -19 -12 -58 6 -80 38 -15 21 -28 65 -40 135 -16 93 -16 109
-3 161 8 31 23 69 34 84 11 15 20 30 20 34 0 4 7 15 14 23 8 9 18 48 22 86 10
103 25 128 118 193 168 118 352 180 455 152 27 -7 52 -24 76 -53 40 -46 69
-66 100 -67 11 0 31 -9 45 -20 14 -11 31 -20 39 -20 25 0 80 -44 92 -73 7 -15
20 -32 30 -37 14 -8 17 -21 16 -67 -1 -39 4 -69 15 -92 10 -19 18 -42 18 -51
0 -31 -33 -115 -58 -148 -24 -31 -25 -36 -13 -65 8 -18 16 -50 18 -72 2 -22
13 -57 25 -78 18 -34 19 -49 13 -123 -6 -80 -6 -84 14 -84 18 0 77 33 180 102
19 13 60 48 90 79 31 31 70 65 88 75 23 13 34 28 42 59 6 26 23 53 46 73 19
18 35 38 35 45 0 25 290 368 367 435 30 26 68 69 85 97 29 47 92 118 202 226
26 26 56 58 65 72 9 14 38 58 65 98 26 41 59 86 73 100 15 16 33 60 48 114 31
112 45 129 102 120 28 -4 64 0 102 11 l60 16 75 -50 c41 -28 84 -53 96 -57 11
-3 20 -13 20 -20 0 -8 11 -22 24 -30 26 -17 39 -68 29 -116 -5 -28 -7 -29 -65
-29 -72 0 -120 -20 -156 -67 -15 -19 -62 -59 -104 -89 -88 -62 -104 -86 -106
-166 -2 -53 0 -58 30 -79 60 -43 151 -155 161 -199 9 -36 0 -44 -73 -64 -97
-26 -183 -72 -251 -135 -34 -31 -98 -81 -143 -111 -62 -43 -91 -71 -124 -120
-52 -76 -155 -203 -258 -315 -134 -146 -384 -528 -384 -588 0 -31 141 -179
229 -242 74 -52 98 -88 85 -127 -4 -12 -34 -51 -67 -85 -59 -62 -60 -63 -52
-105 7 -40 9 -84 6 -179 -2 -57 49 -188 149 -380 97 -190 146 -323 135 -367
-3 -15 -20 -48 -36 -73 -51 -80 -53 -95 -29 -213 24 -116 25 -255 2 -278 -9
-9 -26 -7 -83 11 -70 23 -71 23 -120 100 -63 101 -112 126 -145 76 -16 -24
-15 -30 0 -88 16 -57 35 -151 55 -270 9 -51 -1 -70 -19 -37 -6 11 -19 20 -29
20 -17 0 -19 -15 -23 -222 -3 -123 -9 -231 -13 -241 -12 -28 -28 -15 -51 41
-26 65 -26 65 -57 51 -38 -17 -57 2 -57 58 l0 45 -88 -4 c-131 -6 -172 -38
-172 -132 0 -29 8 -52 25 -76 32 -43 40 -86 27 -147 -9 -41 -7 -63 13 -144 47
-186 61 -318 75 -732 15 -437 -17 -693 -122 -982 -22 -63 -113 -250 -131 -273
-43 -53 -145 -360 -155 -467 -5 -51 -14 -79 -30 -99 -12 -16 -22 -36 -22 -46
0 -25 -39 -133 -129 -359 -57 -143 -83 -222 -88 -265 -3 -34 -11 -72 -18 -86
-7 -14 -15 -57 -19 -96 l-6 -71 98 -7 c109 -7 1079 -52 1442 -66 345 -14 807
-12 1205 5 193 8 458 19 590 25 883 38 885 38 892 57 6 15 -4 72 -15 91 -8 12
-334 72 -395 72 -19 0 -43 -14 -76 -45 -46 -43 -53 -46 -132 -56 -46 -6 -106
-8 -134 -4 -27 4 -102 10 -166 15 -64 5 -126 14 -137 21 -12 7 -47 61 -78 119
-84 154 -141 240 -188 282 l-41 38 3 117 c3 90 8 129 23 162 28 65 25 83 -22
113 l-40 26 -56 -24 c-63 -28 -90 -24 -149 21 -36 28 -40 41 -49 176 l-7 95
38 37 38 36 -12 48 c-7 26 -19 73 -27 103 -32 115 10 233 126 351 61 62 70 76
65 98 -4 14 -9 65 -13 113 -5 81 -4 90 24 150 16 35 36 70 44 78 83 88 129
144 129 156 0 9 -15 50 -34 92 -39 90 -58 185 -46 233 4 19 33 87 65 153 l57
118 -8 82 c-17 163 -11 182 102 331 29 39 71 108 93 155 36 78 55 131 140 402
17 54 68 194 114 310 47 117 96 242 110 278 14 36 35 89 48 117 21 48 22 58
11 100 -21 88 -79 367 -92 443 -31 189 -94 399 -145 486 -57 97 -100 131 -245
189 -380 154 -480 213 -678 400 -107 101 -139 150 -152 231 -9 56 -38 569 -45
794 -2 58 -7 133 -11 168 -7 61 -6 64 31 120 21 31 55 73 76 92 20 20 44 55
52 80 37 107 169 391 191 409 13 11 111 22 195 21 18 0 39 4 45 9 6 5 29 11
51 14 65 9 99 19 110 32 17 20 48 32 103 39 l52 7 0 -67 c0 -99 -52 -344 -101
-479 -10 -27 -21 -62 -24 -78 -3 -15 -21 -45 -40 -66 -19 -20 -39 -50 -45 -66
-6 -16 -17 -111 -25 -210 -8 -100 -19 -195 -26 -211 -7 -19 -9 -71 -5 -154 6
-100 4 -136 -9 -180 -37 -124 -30 -146 40 -130 22 5 64 10 93 10 29 0 85 5
124 11 90 14 129 3 191 -51 25 -22 50 -40 55 -40 6 0 19 -11 30 -25 11 -14 26
-25 34 -25 8 0 45 18 82 41 83 50 136 69 192 69 80 0 91 9 103 92 6 40 21 117
32 171 11 54 18 109 15 121 -8 34 19 147 64 259 23 56 48 134 55 172 8 39 22
102 31 140 9 39 21 106 25 150 16 156 26 224 36 237 6 7 13 27 17 43 4 17 16
53 27 81 20 51 21 52 122 98 67 30 116 46 141 46 23 0 47 7 58 17 22 20 63 6
73 -26 8 -27 37 -27 60 -1 17 19 19 19 37 4 10 -10 18 -26 18 -36 0 -16 6 -19
30 -16 34 3 70 -22 70 -50 0 -11 13 -39 30 -63 16 -24 33 -61 36 -82 4 -21 14
-43 24 -50 22 -15 48 -66 67 -130 8 -28 44 -113 79 -189 35 -76 75 -173 89
-216 13 -42 37 -115 51 -162 20 -63 29 -118 35 -215 5 -71 15 -155 24 -185 8
-30 15 -71 15 -91 0 -20 8 -46 18 -57 9 -11 69 -44 132 -72 63 -29 130 -63
148 -77 17 -13 37 -21 42 -18 6 3 10 36 10 73 0 37 9 121 21 187 23 135 24
215 8 425 -10 137 -13 222 -21 735 l-3 210 75 -3 c85 -4 114 -18 145 -74 11
-21 34 -44 55 -53 19 -9 58 -31 85 -48 28 -18 59 -37 70 -43 11 -5 30 -30 41
-55 24 -48 71 -244 78 -324 3 -28 9 -62 15 -76 5 -14 12 -100 16 -190 4 -90
16 -238 27 -329 11 -91 24 -271 28 -400 5 -183 10 -245 23 -279 21 -54 21 -70
0 -162 -16 -73 -17 -75 -117 -177 -89 -92 -110 -108 -196 -149 -52 -25 -111
-60 -130 -77 -20 -17 -70 -51 -112 -76 l-76 -45 -61 -180 c-33 -99 -81 -238
-106 -310 -52 -145 -50 -138 -98 -321 -59 -220 -75 -267 -111 -324 -30 -46
-36 -64 -36 -112 0 -71 30 -259 80 -501 11 -55 20 -115 20 -136 0 -51 52 -355
106 -616 41 -204 96 -538 125 -765 6 -52 20 -115 31 -140 47 -109 59 -222 31
-291 -21 -53 -15 -67 66 -182 34 -48 72 -108 83 -134 27 -61 26 -174 -1 -263
-27 -84 -26 -89 7 -130 44 -54 53 -76 59 -150 6 -68 5 -70 -28 -103 -37 -37
-120 -64 -163 -53 -13 3 -36 24 -51 46 -41 59 -69 55 -101 -14 -39 -85 -73
-214 -79 -296 -3 -41 -13 -131 -21 -200 -8 -69 -17 -144 -20 -167 -3 -23 -15
-54 -26 -69 -21 -26 -23 -26 -95 -20 -57 5 -90 15 -142 43 -76 39 -83 38 -149
-18 -42 -37 -57 -36 -79 1 -14 25 -23 30 -48 28 -27 -3 -31 -8 -47 -68 -9 -36
-17 -82 -17 -102 -1 -36 1 -38 30 -38 49 0 427 38 594 60 83 11 200 24 260 30
61 6 117 13 125 15 8 2 81 11 163 20 161 17 347 49 374 64 30 16 444 449 466
488 8 14 -9 87 -43 178 -10 28 -54 108 -99 178 -44 70 -89 152 -100 182 -28
73 -35 164 -22 260 19 136 119 410 240 659 59 123 113 226 119 230 24 15 158
-292 198 -454 27 -108 29 -164 10 -305 -25 -181 -63 -302 -170 -531 -54 -116
-110 -304 -104 -347 3 -19 17 -5 182 187 82 96 304 373 392 491 l84 112 -19
54 c-25 75 -63 146 -101 194 -63 78 -144 210 -163 265 -12 34 -22 93 -24 156
-4 85 -1 118 22 215 31 132 95 338 128 412 13 29 52 123 88 209 35 87 69 158
74 158 13 0 114 -181 155 -278 54 -128 91 -254 97 -333 12 -155 -34 -386 -127
-634 -64 -173 -116 -376 -91 -361 9 6 49 63 206 291 76 110 231 359 294 469
51 92 61 115 55 140 -12 60 -85 182 -160 271 -156 185 -184 248 -184 413 1
161 41 342 146 658 49 145 91 264 94 264 13 0 132 -192 183 -295 81 -162 100
-222 105 -342 8 -182 -18 -336 -99 -593 -38 -123 -75 -337 -60 -353 25 -26
451 889 451 969 0 39 -92 163 -194 261 -157 151 -199 224 -218 379 -18 151 6
358 84 721 18 84 38 153 43 153 14 0 93 -92 170 -199 151 -210 185 -313 185
-561 0 -149 -13 -271 -45 -427 -17 -80 -21 -293 -6 -277 30 29 173 506 225
749 50 231 49 223 22 269 -41 71 -88 121 -186 203 -164 137 -204 194 -235 336
-25 115 -17 379 20 642 16 110 32 204 37 210 17 20 204 -186 290 -320 55 -86
73 -130 92 -231 25 -135 29 -275 12 -434 -17 -152 -20 -361 -7 -395 7 -18 9
-17 14 10 53 255 88 815 70 1110 l-8 130 -68 47 c-45 30 -103 58 -165 78 -248
81 -328 167 -420 447 -22 65 -56 188 -75 273 -51 225 -51 220 -35 220 20 0
160 -69 243 -120 200 -122 293 -266 386 -596 41 -147 77 -243 112 -299 l19
-30 -6 100 c-11 187 -62 489 -127 757 l-31 127 -72 30 c-41 17 -106 34 -152
40 -253 32 -321 85 -472 371 -62 118 -165 350 -158 358 7 6 191 -47 265 -77
39 -16 93 -43 121 -61 99 -63 209 -208 300 -395 51 -105 140 -245 155 -245 22
0 -209 658 -275 779 -16 30 -71 43 -220 50 -168 8 -218 28 -310 122 -51 52
-230 303 -230 323 0 3 -14 28 -30 54 -17 27 -30 53 -30 57 0 23 271 -35 351
-76 97 -49 215 -171 303 -315 47 -78 135 -176 136 -152 0 26 -282 567 -317
608 -3 3 -75 5 -161 5 -146 0 -161 2 -207 24 -29 14 -84 59 -131 105 -77 78
-244 288 -244 309 0 17 208 1 280 -22 117 -36 212 -112 332 -264 39 -50 73
-86 75 -80 4 12 -165 276 -269 420 -71 100 -84 104 -214 73 -49 -12 -105 -20
-125 -17 -49 6 -131 49 -193 100 -75 61 -191 175 -185 181 3 3 41 9 85 14 153
18 244 -12 380 -124 101 -83 153 -118 160 -111 4 3 -16 34 -44 69 -58 74 -152
217 -178 271 -16 33 -22 37 -54 37 -20 0 -59 -7 -86 -15 -121 -37 -197 -4
-371 159 -29 27 -53 53 -53 57 0 15 21 10 47 -11 31 -24 127 -28 159 -6 19 13
25 12 65 -15 24 -16 53 -29 65 -29 12 0 40 -15 63 -32 86 -66 116 -87 125 -88
13 0 -3 50 -30 89 -26 38 -31 66 -13 76 12 8 18 1 101 -122 34 -51 65 -90 69
-88 4 3 10 21 13 40 8 39 9 40 37 24 19 -10 18 -11 -11 -47 -16 -20 -30 -41
-30 -47 0 -17 69 -115 180 -254 100 -127 105 -132 108 -102 2 18 -4 66 -12
107 -25 120 -23 124 29 70 30 -30 54 -46 70 -46 32 0 31 -12 -3 -52 -34 -39
-72 -104 -72 -122 0 -6 19 -39 43 -71 24 -33 94 -136 157 -230 132 -197 134
-200 125 -160 -7 29 -21 64 -83 211 -44 104 -65 212 -59 298 4 70 59 260 77
271 11 7 106 -188 145 -298 63 -172 62 -241 -4 -385 -66 -145 -67 -134 43
-325 52 -91 111 -198 131 -236 19 -39 38 -71 41 -71 13 0 -9 118 -42 224 -90
291 -84 437 27 659 40 78 52 91 62 60 3 -10 22 -63 42 -118 59 -162 95 -317
95 -412 0 -98 -15 -142 -88 -262 -29 -46 -59 -107 -68 -136 l-16 -51 40 -80
c22 -44 51 -107 65 -140 67 -160 99 -230 109 -239 14 -14 1 118 -22 225 -59
266 -51 423 30 585 47 94 116 205 128 205 16 0 88 -334 102 -470 17 -172 -10
-267 -113 -394 -57 -71 -107 -161 -107 -193 0 -10 24 -88 54 -173 30 -85 67
-195 81 -245 15 -49 30 -97 33 -105 13 -31 14 90 1 244 -16 197 -3 353 38 455
38 97 210 347 227 330 9 -9 35 -199 46 -349 23 -298 -9 -417 -150 -556 -77
-76 -140 -162 -140 -192 0 -10 11 -64 25 -118 13 -54 37 -165 52 -246 15 -82
31 -148 34 -148 13 0 30 102 39 237 18 238 62 409 137 523 38 57 244 270 263
270 6 0 10 -42 10 -117 0 -230 -31 -458 -80 -587 -26 -68 -119 -168 -211 -229
-82 -54 -162 -142 -155 -170 11 -45 35 -267 46 -427 6 -91 10 -276 8 -413 -2
-161 0 -246 7 -244 22 7 119 148 171 248 82 160 186 311 278 404 72 73 96 89
196 138 127 62 323 132 328 117 6 -16 -195 -411 -258 -508 -84 -128 -174 -221
-253 -261 -41 -21 -113 -43 -194 -61 -82 -18 -158 -42 -205 -64 l-74 -36 -13
-138 c-7 -75 -23 -215 -37 -310 -13 -95 -24 -178 -24 -184 0 -30 139 136 232
277 90 136 212 280 301 357 123 105 284 172 522 218 l115 23 0 3343 0 3344
-8000 0 -8000 0 0 -6990z m8788 6787 c2 -12 -3 -17 -17 -17 -23 0 -24 1 -15
25 8 19 28 15 32 -8z m72 -7 c0 -13 -7 -20 -20 -20 -13 0 -20 7 -20 20 0 13 7
20 20 20 13 0 20 -7 20 -20z m-1040 -15 c0 -9 -9 -15 -22 -15 -64 -1 -68 -6
-68 -91 l0 -79 45 0 c33 0 45 -4 45 -15 0 -11 -11 -15 -40 -15 l-40 0 0 -100
c0 -93 -1 -100 -20 -100 -18 0 -20 7 -20 73 0 39 -3 136 -7 215 l-6 142 66 0
c53 0 67 -3 67 -15z m225 -200 l0 -210 -80 0 -80 0 -3 200 c-1 110 0 205 3
213 3 9 25 12 82 10 l78 -3 0 -210z m110 21 l-7 -193 46 -7 c30 -5 46 -12 46
-22 0 -11 -15 -14 -67 -14 l-66 0 6 98 c4 53 7 150 7 215 0 112 1 117 21 117
21 0 21 -1 14 -194z m187 104 c-5 -98 0 -98 53 8 26 51 43 72 56 72 11 0 19
-2 19 -4 0 -2 -23 -47 -51 -100 l-51 -96 42 -111 c23 -60 40 -113 36 -116 -15
-15 -34 12 -65 91 -19 48 -38 89 -42 92 -5 3 -9 -28 -9 -70 0 -84 -6 -106 -27
-106 -14 0 -15 18 -9 143 12 247 17 288 35 285 14 -3 15 -16 13 -88z m-842 63
c0 -5 7 -82 15 -173 19 -212 19 -250 1 -250 -15 0 -16 1 -36 220 -6 63 -13
136 -16 163 -4 42 -3 47 16 47 11 0 20 -3 20 -7z m1060 -15 c0 -13 -7 -99 -15
-192 -8 -93 -13 -171 -11 -173 2 -3 23 -7 45 -10 25 -4 41 -11 41 -19 0 -10
-16 -14 -59 -14 -33 0 -62 4 -65 8 -5 8 22 385 30 410 6 22 34 13 34 -10z
m-1172 0 c17 -17 16 -118 -2 -118 -15 0 -26 30 -26 73 0 27 -2 28 -37 21 -21
-4 -40 -8 -43 -11 -2 -2 -3 -23 -1 -45 2 -37 12 -51 69 -111 37 -38 70 -77 74
-87 11 -30 13 -119 2 -129 -5 -5 -37 -12 -71 -15 -72 -8 -79 -1 -84 79 -3 40
0 51 13 53 12 2 18 -8 23 -47 l7 -51 38 0 c22 0 41 3 43 8 2 4 1 28 -2 54 -5
41 -15 56 -76 119 l-70 72 0 65 c0 62 2 66 25 73 41 11 105 10 118 -3z m1460
-4 c30 -5 32 -7 31 -47 0 -23 -10 -116 -22 -207 l-22 -165 -65 0 c-102 0 -104
2 -96 88 19 197 38 322 53 334 14 11 34 10 121 -3z m-1683 -24 c0 -10 -13 -17
-40 -20 l-40 -5 3 -65 c4 -90 5 -93 52 -88 26 2 41 -1 45 -10 5 -13 0 -16 -47
-26 -31 -7 -33 -18 -21 -115 l6 -53 49 4 c40 4 48 2 48 -12 0 -13 -12 -19 -46
-24 -87 -11 -78 -28 -109 199 -15 113 -25 208 -21 212 8 8 76 21 101 20 11 -1
20 -9 20 -17z m1944 -25 c11 -11 11 -27 -3 -106 -15 -89 -27 -114 -53 -104
-21 7 -23 -10 -8 -96 19 -106 19 -111 -2 -107 -13 2 -21 26 -34 108 -23 139
-24 130 15 130 l34 0 12 70 c6 38 9 74 5 80 -6 9 -85 15 -85 6 0 -10 -50 -334
-55 -353 -3 -13 -13 -23 -22 -23 -18 0 -18 0 23 261 l27 165 66 -9 c36 -5 72
-15 80 -22z m-2121 -2 c-2 -11 -14 -19 -31 -21 -25 -3 -28 -7 -23 -30 14 -68
56 -332 56 -351 0 -34 -28 -25 -35 12 -3 17 -18 104 -33 192 l-28 160 -32 -3
c-26 -2 -32 2 -32 17 0 16 11 21 63 29 94 14 99 14 95 -5z m-183 -170 c15 -82
33 -174 40 -206 12 -50 12 -59 -1 -64 -8 -3 -17 -3 -19 -1 -9 8 -84 402 -79
410 3 4 11 8 18 8 10 0 22 -46 41 -147z m2580 -85 c-4 -117 -9 -216 -11 -220
-3 -4 -11 -5 -19 -1 -10 3 -15 20 -15 53 0 41 -3 49 -22 54 -41 11 -49 6 -68
-39 -14 -33 -23 -43 -35 -39 -9 4 -15 10 -13 14 2 4 37 93 78 198 60 154 79
192 94 192 18 0 18 -9 11 -212z m-2698 134 c5 -43 3 -52 -10 -52 -11 0 -19 14
-24 43 -9 41 -10 42 -46 41 -21 -1 -40 -4 -43 -7 -3 -3 -3 -24 1 -46 6 -34 17
-48 76 -96 85 -69 97 -86 105 -157 8 -65 1 -72 -83 -84 -59 -7 -69 2 -80 82
-5 41 -4 46 12 42 13 -2 22 -17 29 -49 l11 -45 43 9 c30 6 42 13 38 22 -2 7
-8 30 -12 49 -5 29 -21 48 -84 101 -72 59 -79 68 -89 116 -6 29 -10 53 -9 54
16 10 145 41 151 36 4 -4 10 -31 14 -59z m2933 23 c55 -14 57 -23 34 -124 -20
-88 -28 -101 -60 -101 l-24 0 7 -105 c5 -93 4 -105 -10 -100 -15 6 -17 15 -32
186 l-6 66 38 -1 38 -1 14 68 c8 37 11 70 8 73 -4 4 -23 7 -43 8 l-37 1 -47
-185 c-25 -102 -49 -184 -53 -183 -4 1 -12 3 -18 5 -8 3 55 294 87 401 4 13
12 15 32 10 15 -3 47 -12 72 -18z m-3159 -67 c6 -24 15 -56 20 -72 14 -46 11
-64 -16 -78 l-24 -13 54 -84 c30 -46 55 -88 55 -92 0 -5 -8 -9 -17 -9 -20 0
-147 196 -137 211 3 5 14 9 24 9 29 0 32 14 15 79 -19 73 -19 91 0 91 8 0 19
-17 26 -42z m3378 -5 c0 -10 -10 -106 -22 -213 -20 -172 -25 -195 -41 -198
-17 -4 -18 1 -12 46 6 47 5 50 -18 56 -13 3 -31 8 -39 12 -10 3 -19 -7 -30
-35 -18 -45 -34 -59 -43 -38 -5 15 12 57 111 265 43 90 63 122 77 122 11 0 18
-7 17 -17z m-3471 -150 c58 -222 58 -223 36 -223 -16 0 -26 27 -63 178 -24 97
-46 183 -49 190 -2 7 4 12 16 12 17 0 25 -21 60 -157z m-190 125 c-43 -11 -44
-16 -20 -99 l17 -61 48 6 c38 5 47 4 47 -8 0 -9 -17 -20 -40 -27 -29 -9 -39
-17 -36 -28 40 -144 40 -143 66 -137 14 3 35 8 48 12 16 5 22 2 22 -10 0 -18
-31 -33 -88 -42 l-37 -6 -49 169 c-67 230 -66 217 -19 230 21 6 47 11 58 11
11 0 3 -5 -17 -10z m3879 -25 c23 -8 43 -20 46 -27 2 -6 -3 -33 -10 -59 -11
-36 -19 -47 -31 -44 -9 2 -15 10 -14 18 17 70 16 79 -16 85 -44 9 -45 8 -60
-34 -12 -34 -10 -44 19 -126 31 -86 32 -91 20 -150 -18 -89 -25 -93 -105 -66
-74 24 -76 28 -50 103 10 29 22 47 31 47 16 0 15 -28 -2 -85 -5 -16 1 -22 29
-31 43 -13 49 -10 64 43 12 39 10 48 -23 135 l-35 94 16 50 c28 82 27 81 121
47z m-4008 -85 c7 -46 22 -137 32 -203 23 -145 23 -135 1 -135 -13 0 -44 50
-115 189 -53 104 -97 192 -97 195 0 3 8 6 18 6 13 0 35 -36 82 -132 76 -156
69 -143 75 -136 5 5 -22 181 -41 271 -5 22 -2 27 13 27 16 0 21 -13 32 -82z
m4261 -15 c0 -12 -7 -14 -33 -9 l-32 6 -65 -185 c-36 -102 -67 -185 -70 -185
-3 0 -11 4 -18 8 -13 9 -8 26 77 260 l41 113 -25 11 c-14 6 -25 19 -25 29 0
16 6 16 75 -8 49 -16 75 -30 75 -40z m-4483 5 c6 -18 37 -106 68 -196 43 -122
55 -166 46 -175 -7 -7 -14 -7 -20 -1 -8 8 -141 385 -141 398 0 3 8 6 18 6 11
0 22 -12 29 -32z m-112 -15 c4 -10 38 -99 76 -198 68 -178 76 -228 27 -169
-12 15 -39 46 -59 68 -19 23 -52 62 -73 89 -22 26 -40 46 -42 44 -2 -2 16 -59
41 -127 25 -68 44 -129 41 -137 -10 -24 -24 -13 -39 30 -9 23 -39 103 -67 177
-57 148 -68 190 -51 190 6 0 52 -50 102 -110 51 -61 94 -108 97 -105 2 2 -9
39 -26 82 -56 145 -62 164 -57 174 9 14 22 11 30 -8z m4678 -10 c3 -5 -24 -84
-60 -178 -36 -93 -67 -180 -70 -193 -7 -28 -21 -38 -35 -24 -8 8 11 70 62 206
66 177 87 215 103 189z m-4958 -43 c0 -8 -8 -16 -17 -18 -13 -2 -18 3 -18 18
0 15 5 20 18 18 9 -2 17 -10 17 -18z m5110 -14 c39 -16 61 -31 63 -43 2 -11
-12 -55 -30 -98 -31 -75 -36 -80 -66 -83 -30 -3 -32 -6 -32 -41 0 -21 -3 -66
-6 -100 -6 -49 -10 -61 -23 -59 -17 3 -18 57 -5 190 l6 57 36 -2 c34 -2 36 -1
59 58 12 32 23 63 23 67 0 12 -73 39 -81 31 -4 -5 -38 -86 -75 -180 -54 -140
-71 -173 -86 -173 -11 0 -18 6 -16 13 12 49 155 387 163 387 6 0 37 -11 70
-24z m-5171 -2 c9 -23 8 -24 -14 -24 -19 0 -27 20 -13 33 11 11 20 8 27 -9z
m137 -79 c81 -188 127 -307 123 -318 -6 -16 -121 -60 -137 -54 -7 3 -48 89
-92 191 -59 141 -75 190 -67 198 8 8 15 8 20 3 5 -6 39 -84 77 -175 37 -91 71
-169 75 -173 4 -5 26 0 48 10 l41 18 -75 175 c-69 160 -81 207 -53 198 6 -2
24 -35 40 -73z m5203 -22 c-4 -21 -15 -81 -25 -133 -16 -84 -17 -113 -5 -99 2
2 38 49 81 104 43 55 80 99 82 98 2 -1 9 -3 15 -5 8 -3 -19 -74 -72 -196 -64
-145 -89 -192 -102 -192 -10 0 -18 2 -18 5 0 2 20 50 45 107 25 56 44 105 43
110 -2 4 -31 -28 -66 -73 -35 -44 -65 -79 -68 -77 -2 3 4 51 14 107 22 119 13
118 -43 -9 -42 -96 -61 -122 -70 -99 -3 9 12 55 35 104 22 48 59 132 82 186
32 75 46 99 60 99 16 0 18 -5 12 -37z m-5540 -253 c43 -91 79 -167 81 -169 3
-2 22 4 45 13 50 20 50 20 50 -2 0 -13 -17 -25 -56 -41 -30 -13 -57 -22 -58
-20 -2 2 -43 89 -92 192 -71 153 -85 190 -73 197 7 5 17 6 20 2 3 -4 41 -81
83 -172z m5846 141 c0 -3 -19 -69 -41 -146 -23 -77 -49 -167 -59 -200 -10 -37
-22 -60 -31 -60 -15 0 -16 19 -4 71 6 26 3 32 -20 42 -36 17 -53 15 -60 -7 -9
-29 -44 -56 -56 -44 -15 15 236 364 256 356 8 -3 15 -8 15 -12z m-5933 -196
c50 -98 89 -185 86 -192 -3 -8 -33 -28 -67 -45 l-61 -31 -20 27 c-29 39 -184
350 -178 358 14 23 36 -8 113 -160 47 -92 86 -169 87 -171 4 -6 48 8 67 22 19
14 17 21 -67 186 -81 158 -94 198 -64 188 7 -2 53 -84 104 -182z m6171 76 c43
-22 111 -89 77 -76 -11 4 -27 9 -36 12 -11 3 -36 -33 -95 -144 -43 -81 -82
-155 -86 -164 -9 -23 -28 -33 -39 -22 -7 7 -2 26 14 54 13 24 54 102 91 172
64 122 67 129 49 142 -10 8 -21 15 -25 15 -8 0 1 30 8 30 3 0 21 -9 42 -19z
m-6512 -108 c56 -104 147 -268 150 -271 1 -2 20 6 42 17 38 19 62 15 47 -8 -4
-8 -92 -61 -100 -61 -13 0 -206 363 -201 377 10 26 26 12 62 -54z m-97 -60
c42 -164 51 -188 90 -253 22 -36 37 -68 35 -72 -13 -21 -36 -2 -69 57 -24 42
-71 99 -138 164 -85 83 -99 101 -84 107 14 5 35 -10 88 -62 77 -77 81 -74 48
41 -21 70 -21 105 -1 105 5 0 19 -39 31 -87z m6809 62 c15 -8 40 -28 56 -44
l29 -30 -96 -168 c-90 -159 -97 -168 -124 -167 -32 2 -111 47 -119 68 -3 7 39
90 93 184 103 181 108 186 161 157z m245 -144 c36 -22 51 -61 28 -75 -5 -3
-30 -42 -56 -86 -26 -44 -54 -80 -62 -80 -8 0 -34 11 -57 25 l-42 25 -35 -56
c-55 -89 -56 -90 -70 -77 -9 9 9 45 76 155 148 241 133 222 158 206 12 -8 39
-24 60 -37z m-7263 29 c0 -5 -3 -10 -7 -10 -5 0 -21 -11 -37 -23 l-29 -24 37
-61 c39 -65 49 -71 80 -47 11 8 26 15 33 15 24 0 13 -29 -17 -47 -16 -9 -30
-20 -30 -24 0 -3 19 -36 43 -72 l42 -66 42 24 c35 21 42 23 47 10 4 -11 -9
-25 -41 -45 -54 -35 -64 -36 -79 -12 -6 9 -54 88 -107 174 l-96 156 47 31 c48
32 72 39 72 21z m7384 -121 c-1 -14 -58 -107 -151 -248 -24 -35 -43 -69 -43
-75 0 -7 14 -20 30 -29 28 -17 41 -47 21 -47 -16 0 -100 54 -101 64 0 9 54 96
163 264 55 84 84 109 81 71z m-7576 -214 c30 -99 56 -182 58 -184 2 -2 23 8
48 23 51 30 56 31 56 13 0 -17 -112 -99 -121 -89 -4 4 -33 90 -65 192 -31 102
-59 187 -60 189 -2 2 -21 -8 -43 -22 -25 -17 -42 -23 -47 -16 -7 12 -11 9 51
48 28 17 54 29 59 28 4 -2 33 -84 64 -182z m7736 116 c4 -5 -20 -47 -51 -93
-32 -45 -79 -114 -105 -153 -26 -38 -48 -74 -48 -80 0 -11 68 -61 74 -54 4 5
144 210 185 272 18 26 36 47 41 47 27 0 14 -31 -51 -128 -137 -201 -153 -224
-166 -229 -13 -5 -116 58 -128 78 -6 9 46 91 175 278 51 74 61 83 74 62z
m-7859 -196 c61 -86 111 -166 113 -178 2 -17 -9 -30 -48 -54 -27 -18 -58 -33
-67 -33 -26 1 -258 330 -241 341 18 11 25 2 138 -157 53 -77 103 -140 111
-142 8 -1 27 9 44 22 l30 24 -48 69 c-26 37 -77 108 -112 158 -57 81 -65 104
-35 105 3 0 55 -70 115 -155z m8063 56 c-5 -12 -82 -121 -150 -213 -38 -50
-68 -96 -68 -102 0 -6 14 -23 32 -38 25 -20 30 -30 21 -38 -8 -9 -22 -4 -57
21 -25 19 -45 39 -46 45 0 9 47 77 192 276 33 45 54 65 64 61 8 -3 14 -8 12
-12z m-8343 -93 c35 -157 24 -141 141 -204 85 -47 102 -60 92 -71 -11 -10 -29
-4 -101 33 -49 25 -90 44 -93 41 -2 -2 19 -34 47 -70 46 -60 55 -87 29 -87
-11 0 -250 315 -250 330 0 26 33 4 75 -51 26 -33 49 -59 50 -57 2 2 -6 42 -18
90 -17 72 -19 89 -8 102 8 9 15 16 16 16 2 0 11 -33 20 -72z m8490 -8 c4 -6
-46 -81 -111 -167 l-119 -156 34 -28 c25 -20 38 -26 47 -18 7 5 52 63 101 127
48 64 96 126 105 136 10 11 18 23 18 28 0 11 27 10 34 -1 7 -11 -242 -341
-257 -341 -19 0 -117 80 -117 96 0 17 237 334 250 334 5 0 12 -5 15 -10z m160
-71 c11 -9 78 -63 150 -120 188 -151 268 -228 254 -246 -10 -12 -17 -9 -44 17
l-32 31 -137 -161 c-75 -88 -141 -160 -146 -160 -7 0 -21 11 -92 70 -29 24
-21 45 48 127 36 43 93 111 126 151 56 66 88 89 88 61 0 -13 -71 -102 -174
-219 -36 -41 -66 -80 -66 -87 0 -6 15 -23 32 -38 l32 -27 34 38 c18 22 78 91
132 155 l99 116 -87 80 c-48 44 -130 117 -182 162 -52 46 -102 90 -110 99 -16
16 41 -21 75 -49z m-8725 -154 c66 -82 120 -157 120 -166 0 -18 -94 -99 -115
-99 -16 0 -255 300 -255 320 1 15 108 100 123 97 4 -1 61 -69 127 -152z m8806
39 c24 -20 44 -44 44 -54 0 -9 -15 -34 -34 -56 -25 -29 -37 -36 -46 -28 -8 8
-5 19 14 42 14 16 26 35 26 40 0 10 -52 52 -64 52 -3 0 -55 -62 -117 -137
l-111 -137 33 -28 c18 -15 36 -28 39 -28 3 0 24 25 48 55 37 48 41 57 30 74
-19 30 -3 36 31 11 35 -24 39 -15 -43 -118 -27 -34 -54 -62 -61 -62 -16 0
-115 79 -115 91 0 6 55 79 123 164 77 99 129 155 140 155 10 0 39 -16 63 -36z
m-9049 -121 c154 -177 178 -212 168 -243 -8 -26 -76 -90 -95 -89 -14 0 -260
284 -269 310 -2 7 14 28 35 46 28 24 49 33 75 33 31 0 42 -7 86 -57z m9971
-399 c31 -26 63 -49 69 -51 16 -6 17 -35 2 -50 -8 -8 -30 8 -80 59 -58 60 -75
88 -53 88 3 0 31 -21 62 -46z m261 -150 c27 -14 52 -31 55 -39 7 -20 28 -176
24 -181 -6 -5 -178 156 -178 166 0 18 31 80 40 80 6 0 32 -12 59 -26z m-13296
-2796 c113 -64 211 -135 264 -191 90 -96 181 -278 245 -491 17 -55 50 -140 74
-188 23 -49 40 -88 36 -88 -3 0 -32 18 -63 40 -32 22 -106 60 -164 84 -123 51
-172 82 -226 146 -51 58 -129 217 -173 350 -35 107 -106 362 -106 381 0 15 31
3 113 -43z m15193 35 c-3 -10 -19 -70 -35 -133 -69 -262 -151 -469 -226 -566
-54 -72 -126 -123 -230 -164 -89 -35 -155 -69 -196 -101 -20 -16 -39 -29 -42
-29 -3 0 14 42 38 93 23 51 48 110 54 132 66 244 165 446 271 554 52 53 164
130 290 199 64 36 84 39 76 15z m-15381 -705 c90 -30 260 -115 308 -155 109
-91 228 -254 332 -452 30 -58 82 -142 115 -186 32 -43 58 -80 56 -82 -1 -2
-36 12 -77 31 -41 19 -103 39 -139 46 -253 45 -343 104 -489 326 -57 86 -271
495 -271 518 0 5 65 -13 165 -46z"/>
<path d="M7917 13720 c-3 -11 -3 -94 0 -185 l6 -165 37 0 c21 0 42 6 47 13 6
7 8 79 5 185 l-5 172 -42 0 c-34 0 -44 -4 -48 -20z"/>
<path d="M8746 13673 c-11 -57 -39 -323 -35 -328 3 -2 25 -5 49 -7 l45 -3 12
100 c6 55 14 134 18 176 l8 76 -33 6 c-52 11 -58 9 -64 -20z"/>
<path d="M9342 13519 c-32 -85 -62 -172 -60 -174 2 -1 17 -5 34 -8 l31 -6 6
102 c7 105 4 126 -11 86z"/>
<path d="M9780 13409 c0 -6 -16 -45 -35 -86 -37 -80 -36 -93 11 -93 19 0 22 7
28 73 4 39 10 82 13 95 3 13 1 22 -6 22 -6 0 -11 -5 -11 -11z"/>
<path d="M10909 12914 c-24 -36 -48 -72 -54 -80 -7 -11 -5 -19 9 -30 11 -8 25
-14 31 -14 11 0 72 177 63 185 -2 3 -24 -25 -49 -61z"/>
<path d="M11399 12783 c-8 -16 -44 -81 -81 -146 -38 -65 -68 -123 -68 -130 0
-13 50 -47 68 -47 8 0 92 133 92 146 0 2 20 37 45 77 25 41 45 77 45 81 0 8
-62 46 -76 46 -6 0 -17 -12 -25 -27z"/>
<path d="M11586 12620 c-25 -39 -46 -76 -46 -83 0 -11 49 -47 63 -47 9 0 97
139 97 153 0 8 -12 20 -27 28 -16 7 -31 15 -35 17 -3 2 -27 -29 -52 -68z"/>
<path d="M3591 12120 c-24 -19 -32 -31 -26 -41 8 -12 186 -240 206 -263 10
-12 81 42 77 58 -4 16 -200 263 -213 269 -6 3 -26 -8 -44 -23z"/>
<path d="M3402 11964 c-12 -8 -22 -21 -22 -29 0 -15 217 -275 229 -275 14 0
51 46 51 63 0 15 -150 203 -192 240 -25 21 -37 21 -66 1z"/>
<path d="M15969 7243 c-186 -313 -300 -473 -422 -596 -138 -140 -222 -175
-457 -196 -135 -12 -256 -50 -270 -85 -4 -12 -20 -79 -35 -151 -15 -71 -47
-204 -71 -295 -23 -90 -41 -167 -38 -169 7 -7 192 187 279 293 92 113 207 225
297 292 98 72 187 112 321 144 122 29 342 58 353 48 5 -6 -173 -251 -212 -293
-11 -11 -41 -48 -68 -83 -118 -155 -264 -284 -381 -338 -85 -39 -177 -54 -330
-54 -110 0 -248 -21 -269 -40 -4 -5 -39 -98 -76 -207 -37 -109 -86 -247 -109
-306 -24 -60 -40 -111 -37 -114 11 -11 151 105 256 212 132 134 229 216 350
294 164 106 285 139 549 148 194 7 186 11 122 -62 -33 -36 -219 -231 -331
-345 -113 -114 -258 -214 -365 -250 -69 -23 -108 -25 -330 -16 -114 5 -177 3
-218 -6 l-58 -13 -49 -115 c-60 -138 -91 -206 -147 -319 -23 -48 -38 -88 -32
-89 15 -6 198 96 279 155 229 168 420 276 580 329 80 26 95 28 250 27 187 -1
421 -30 420 -51 -1 -8 -80 -70 -283 -224 -221 -168 -435 -290 -567 -324 -76
-19 -211 -15 -300 10 -185 52 -206 56 -305 56 -100 0 -101 0 -112 -27 -19 -46
-206 -376 -310 -550 -17 -28 -29 -54 -26 -57 11 -11 219 107 322 182 144 106
236 161 371 226 156 73 242 97 371 104 138 6 475 -28 467 -48 -4 -10 -192
-160 -303 -241 -229 -169 -414 -268 -571 -305 -89 -21 -168 -14 -349 31 -109
27 -161 35 -232 35 l-92 0 -57 -87 c-58 -90 -141 -213 -244 -363 -32 -47 -57
-86 -56 -88 11 -10 229 89 333 153 162 98 320 173 463 220 159 52 265 57 441
21 119 -24 390 -111 389 -125 -1 -3 -29 -24 -63 -45 -468 -296 -557 -346 -702
-394 -231 -76 -323 -67 -572 52 -109 53 -219 86 -286 86 -31 0 -40 -9 -162
-172 -121 -162 -236 -307 -277 -352 -27 -30 -22 -38 20 -32 20 3 73 8 117 12
73 6 89 12 190 68 176 97 349 166 509 201 145 32 317 8 566 -81 l100 -36 172
22 c95 11 258 37 362 56 103 19 190 33 193 30 6 -5 -52 -32 -202 -93 -60 -25
-135 -55 -165 -68 -30 -12 -120 -50 -200 -85 -417 -180 -812 -331 -1050 -400
-73 -22 -184 -70 -176 -77 6 -6 176 -31 321 -47 134 -15 200 -25 545 -80 245
-39 861 -144 905 -154 36 -8 38 -10 15 -15 -14 -4 -106 -16 -205 -27 -171 -19
-474 -55 -560 -65 -22 -3 -125 -16 -230 -29 -104 -14 -280 -34 -390 -46 -110
-11 -310 -34 -445 -50 -305 -36 -515 -54 -529 -45 -8 4 -11 114 -11 345 l0
338 -63 11 c-35 6 -66 11 -70 11 -11 0 -77 -75 -77 -87 0 -9 10 -10 33 -6 17
4 41 7 52 7 19 1 19 -13 23 -924 4 -896 3 -926 -15 -942 -30 -28 -617 -132
-1198 -213 -597 -84 -927 -120 -1710 -185 -60 -5 -189 -16 -285 -25 -96 -8
-281 -20 -410 -26 -129 -7 -300 -15 -380 -18 -80 -4 1517 -8 3548 -9 l3692 -2
0 3640 c0 2002 -2 3640 -4 3640 -2 0 -14 -17 -27 -37z"/>
<path d="M6536 1782 c9 -22 9 -13 -5 -252 -27 -471 -45 -660 -67 -736 -5 -20
-1 -21 78 -27 131 -11 176 6 225 82 65 101 97 229 108 436 12 208 -19 362 -86
439 -45 51 -72 61 -187 69 -67 5 -73 4 -66 -11z m181 -44 c60 -66 85 -178 84
-378 -1 -242 -50 -447 -126 -527 -44 -45 -76 -54 -108 -30 -17 12 -17 30 3
342 11 182 23 384 26 450 7 169 6 165 57 165 32 0 49 -6 64 -22z"/>
<path d="M9285 1779 c-22 -4 -60 -8 -85 -9 -55 0 -90 -9 -90 -22 0 -6 32 -8
88 -4 48 4 92 3 98 -1 13 -10 69 -908 60 -958 -7 -34 -6 -35 26 -35 54 0 79
10 73 29 -5 17 -9 74 -45 606 -11 171 -22 318 -24 328 -8 34 4 47 45 47 26 0
39 5 39 13 0 16 -120 20 -185 6z"/>
<path d="M7440 1741 c0 -6 5 -13 10 -16 6 -4 10 -80 10 -196 0 -161 -2 -189
-15 -189 -8 0 -15 -7 -15 -15 0 -8 5 -15 11 -15 17 0 7 -553 -10 -573 -10 -13
-4 -16 44 -19 55 -3 56 -3 50 22 -8 30 -7 549 1 561 3 5 36 9 75 9 87 0 91 16
4 22 -35 2 -67 7 -70 10 -8 8 -7 342 1 363 5 12 24 15 85 15 43 0 79 4 79 9 0
4 -41 11 -92 15 -125 8 -168 8 -168 -3z"/>
<path d="M8381 1688 c-17 -89 -79 -412 -116 -613 -48 -256 -65 -334 -76 -341
-18 -11 -8 -24 19 -24 26 0 27 3 30 53 1 28 10 90 20 137 l17 85 129 8 c78 5
133 4 138 -1 15 -15 60 -214 55 -244 -3 -28 -3 -28 49 -28 l53 0 -14 33 c-7
17 -41 145 -75 282 -34 138 -79 311 -100 385 -22 74 -49 177 -61 228 -17 74
-25 92 -40 92 -13 0 -20 -12 -28 -52z m89 -382 c39 -154 69 -280 68 -281 -9
-7 -235 -14 -245 -7 -9 5 2 78 43 287 30 154 54 281 54 284 0 23 19 -45 80
-283z"/>
<path d="M9130 631 c0 -14 6 -21 20 -21 38 0 26 -79 -35 -237 -30 -78 -55
-150 -55 -160 0 -17 7 -18 83 -11 45 3 85 7 90 7 4 1 7 10 7 21 0 18 -4 20
-54 14 -33 -4 -56 -2 -60 4 -3 6 16 66 43 134 49 119 50 125 43 193 l-7 70
-37 3 c-33 3 -38 0 -38 -17z"/>
<path d="M7556 558 c-8 -67 -8 -162 0 -182 5 -12 21 -16 64 -16 33 0 62 -5 65
-11 4 -5 4 -42 0 -80 l-7 -70 -42 3 -41 3 -3 48 c-3 39 -6 47 -23 47 -17 0
-19 -7 -19 -64 0 -49 4 -65 16 -70 30 -12 141 -6 152 7 18 21 18 417 1 428 -8
5 -46 9 -85 9 l-71 0 -7 -52z m134 -73 l0 -85 -45 0 -45 0 0 85 0 85 45 0 45
0 0 -85z"/>
<path d="M8297 593 c-3 -10 -2 -65 1 -123 l7 -105 68 -3 67 -3 0 -73 c0 -80
-4 -86 -61 -86 -28 0 -29 1 -29 50 0 51 -9 60 -39 41 -12 -8 -13 -21 -5 -68
l9 -58 74 -3 c42 -2 79 2 84 7 11 11 11 400 0 427 -4 10 -27 14 -88 14 -71 0
-84 -3 -88 -17z m131 -110 l3 -83 -46 0 -45 0 0 78 c0 43 3 82 7 86 4 4 23 6
43 4 l35 -3 3 -82z"/>
<path d="M6931 558 c-6 -24 -11 -52 -10 -63 1 -11 -2 -83 -6 -161 -7 -131 -7
-141 10 -148 37 -14 44 11 51 207 6 157 5 190 -7 198 -23 14 -26 11 -38 -33z"/>
<path d="M9040 536 c0 -25 19 -39 38 -27 17 11 2 51 -19 51 -13 0 -19 -7 -19
-24z"/>
</g>
</svg>
