<svg width="200" height="200" viewBox="0 0 200 200" xmlns="http://www.w3.org/2000/svg">
  <!-- Outer circle -->
  <circle cx="100" cy="100" r="95" fill="none" stroke="#0A0A0A" stroke-width="2"/>
  
  <!-- Top text arc (simplified as text) -->
  <text x="100" y="40" font-family="Arial, sans-serif" font-size="10" font-weight="bold" text-anchor="middle" fill="#0A0A0A">9 EYLÜL FOLKLORE</text>
  
  <!-- Center dancers silhouette -->
  <!-- Male dancer (left) -->
  <circle cx="70" cy="110" r="18" fill="#0A0A0A"/>
  <circle cx="70" cy="130" r="20" fill="#0A0A0A"/>
  <rect x="60" y="145" width="20" height="25" rx="2" fill="#0A0A0A"/>
  
  <!-- Female dancer (right) -->
  <circle cx="130" cy="110" r="18" fill="#0A0A0A"/>
  <path d="M 115 135 Q 130 155 145 135 L 140 160 L 120 160 Z" fill="#0A0A0A"/>
  
  <!-- Laurel leaves (simplified) -->
  <path d="M 50 90 L 45 75 L 60 80 L 50 70 L 60 75 L 50 90" fill="#0A0A0A" opacity="0.7"/>
  <path d="M 150 90 L 155 75 L 140 80 L 150 70 L 140 75 L 150 90" fill="#0A0A0A" opacity="0.7"/>
  
  <!-- Bottom banner -->
  <path d="M 30 160 Q 100 170 170 160 L 170 175 Q 100 185 30 175 Z" fill="#0A0A0A"/>
  <text x="100" y="175" font-family="Arial, sans-serif" font-size="12" font-weight="bold" text-anchor="middle" fill="#FFFFFF">9 EYLÜL</text>
  <text x="100" y="168" font-family="Arial, sans-serif" font-size="8" text-anchor="middle" fill="#FFFFFF">Folklore</text>
</svg>

